<?xml version="1.0" encoding="UTF-8"?>
<svg width="400px" height="300px" viewBox="0 0 400 300" version="1.1" xmlns="http://www.w3.org/2000/svg" xmlns:xlink="http://www.w3.org/1999/xlink">
    <!-- Generator: Sketch 52.2 (67145) - http://www.bohemiancoding.com/sketch -->
    <title>receipt-bank-logo</title>
    <desc>Created with Sketch.</desc>
    <g id="receipt-bank-logo" stroke="none" stroke-width="1" fill="none" fill-rule="evenodd">
        <g id="receiptbank-logo" transform="translate(21.000000, 125.000000)">
            <path d="M71.7445684,31.7225777 L65.2096301,31.7225777 L65.2096301,46 L57,46 L57,7 L71.7991779,7 C76.495596,7 80.1362302,8.03382084 82.6846741,10.083638 C85.233118,12.1334552 86.50734,15.0388483 86.50734,18.7819927 C86.50734,21.4378428 85.9248385,23.6659049 84.7416324,25.4305302 C83.5584263,27.2129799 81.7745156,28.6211152 79.3899002,29.6727605 L88,45.6078611 L88,45.9821755 L79.2078685,45.9821755 L71.7445684,31.7225777 Z M65.2096301,25.2166362 L71.8355843,25.2166362 C73.8925426,25.2166362 75.4944216,24.6997258 76.6230182,23.6837294 C77.7516148,22.6499086 78.3159131,21.2417733 78.3159131,19.4414991 C78.3159131,17.6055759 77.7880211,16.1617916 76.7140341,15.1101463 C75.640047,14.0585009 74.0017616,13.523766 71.7991779,13.523766 L65.2096301,13.523766 L65.2096301,25.2166362 Z" id="Shape" fill="#EF6525" fill-rule="nonzero"></path>
            <path d="M104.215447,46 C100.00542,46 96.5880759,44.7010676 93.9634146,42.1032028 C91.3211382,39.5053381 90,36.0355872 90,31.6939502 L90,30.9466192 C90,28.0462633 90.5636856,25.4483986 91.6734417,23.1530249 C92.7831978,20.8576512 94.3685637,19.0960854 96.3943089,17.8505338 C98.4376694,16.6049822 100.762873,16 103.369919,16 C107.280488,16 110.363144,17.2455516 112.617886,19.7366548 C114.872629,22.227758 116,25.7686833 116,30.3594306 L116,33.5088968 L97.7506775,33.5088968 C97.99729,35.3950178 98.7371274,36.9074733 99.9878049,38.0462633 C101.238482,39.1850534 102.806233,39.7544484 104.708672,39.7544484 C107.650407,39.7544484 109.957995,38.6690391 111.613821,36.5160142 L115.365854,40.7686833 C114.220867,42.405694 112.670732,43.6868327 110.715447,44.6120996 C108.760163,45.5551601 106.593496,46 104.215447,46 Z M103.334688,22.227758 C101.819783,22.227758 100.586721,22.7437722 99.6355014,23.7935943 C98.6842818,24.8256228 98.0853659,26.3202847 97.8211382,28.2597865 L108.460705,28.2597865 L108.460705,27.6370107 C108.425474,25.9288256 107.96748,24.594306 107.086721,23.6512456 C106.205962,22.7081851 104.955285,22.227758 103.334688,22.227758 Z" id="Shape" fill="#EF6525" fill-rule="nonzero"></path>
            <path d="M132.574737,39.7759336 C134.034386,39.7759336 135.220351,39.3847066 136.132632,38.6022525 C137.044912,37.8197985 137.519298,36.7705987 137.555789,35.4724363 L144.981754,35.4724363 C144.963509,37.4285714 144.41614,39.2246592 143.339649,40.8606995 C142.263158,42.4967398 140.785263,43.7593361 138.905965,44.6484884 C137.026667,45.5554238 134.964912,46 132.702456,46 C128.469474,46 125.112281,44.6840545 122.667368,42.0521636 C120.222456,39.4202727 119,35.8103142 119,31.1689389 L119,30.6532306 C119,26.2074689 120.222456,22.6508595 122.649123,19.9834025 C125.075789,17.3337285 128.414737,16 132.665965,16 C136.369825,16 139.34386,17.0314167 141.58807,19.0942501 C143.832281,21.1570836 144.963509,23.8956728 145,27.3100178 L137.574035,27.3100178 C137.537544,25.7984588 137.063158,24.5892116 136.150877,23.6467101 C135.238596,22.7042087 134.034386,22.2418494 132.538246,22.2418494 C130.695439,22.2418494 129.308772,22.8998222 128.36,24.2157676 C127.411228,25.5317131 126.936842,27.6478957 126.936842,30.5998814 L126.936842,31.4001186 C126.936842,34.3876704 127.411228,36.521636 128.341754,37.8197985 C129.254035,39.1357439 130.677193,39.7759336 132.574737,39.7759336 Z" id="Path" fill="#EF6525"></path>
            <path d="M162.215447,46 C158.00542,46 154.588076,44.7010676 151.963415,42.1032028 C149.321138,39.5053381 148,36.0355872 148,31.6939502 L148,30.9466192 C148,28.0462633 148.563686,25.4483986 149.673442,23.1530249 C150.783198,20.8576512 152.368564,19.0960854 154.394309,17.8505338 C156.437669,16.6049822 158.762873,16 161.369919,16 C165.280488,16 168.363144,17.2455516 170.617886,19.7366548 C172.872629,22.227758 174,25.7686833 174,30.3594306 L174,33.5088968 L155.750678,33.5088968 C155.99729,35.3950178 156.737127,36.9074733 157.987805,38.0462633 C159.238482,39.1850534 160.806233,39.7544484 162.708672,39.7544484 C165.650407,39.7544484 167.957995,38.6690391 169.613821,36.5160142 L173.365854,40.7686833 C172.220867,42.405694 170.670732,43.6868327 168.715447,44.6120996 C166.760163,45.5551601 164.593496,46 162.215447,46 Z M161.334688,22.227758 C159.819783,22.227758 158.586721,22.7437722 157.635501,23.7935943 C156.684282,24.8256228 156.085366,26.3202847 155.821138,28.2597865 L166.460705,28.2597865 L166.460705,27.6370107 C166.425474,25.9288256 165.96748,24.594306 165.086721,23.6512456 C164.205962,22.7081851 162.955285,22.227758 161.334688,22.227758 Z" id="Shape" fill="#EF6525" fill-rule="nonzero"></path>
            <polygon id="Path" fill="#EF6525" points="187 46 179 46 179 16 187 16"></polygon>
            <path d="M219,31.4221833 C219,35.9158264 217.987705,39.5287155 215.963115,42.2428759 C213.938525,44.9570364 211.221311,46.3051293 207.775956,46.3051293 C204.863388,46.3051293 202.501366,45.2805787 200.70765,43.2314774 L200.70765,57 L193,57 L193,16.5392372 L200.157104,16.5392372 L200.423497,19.3971942 C202.288251,17.1323981 204.721311,16 207.740437,16 C211.29235,16 214.062842,17.3301184 216.034153,19.9903551 C218.005464,22.6505918 219,26.3353792 219,31.0087681 L219,31.4221833 Z M211.27459,30.8649715 C211.27459,28.150811 210.795082,26.0477861 209.853825,24.5738711 C208.894809,23.0999562 207.509563,22.3629987 205.698087,22.3629987 C203.282787,22.3629987 201.613388,23.2976765 200.70765,25.167032 L200.70765,37.1380973 C201.648907,39.0613766 203.336066,40.0320035 205.751366,40.0320035 C209.427596,40.0140289 211.27459,36.9583516 211.27459,30.8649715 Z" id="Shape" fill="#EF6525" fill-rule="nonzero"></path>
            <path d="M232.826087,9.01798736 L232.826087,16.2129315 L237.718427,16.2129315 L237.718427,21.9508994 L232.826087,21.9508994 L232.826087,36.5566359 C232.826087,37.6358775 233.019669,38.409334 233.424431,38.8770053 C233.829193,39.3446767 234.60352,39.5785124 235.747412,39.5785124 C236.592133,39.5785124 237.348861,39.5245503 238,39.3806514 L238,45.298493 C236.504141,45.7661643 234.955487,46 233.371636,46 C228.004141,46 225.276398,43.2299465 225.170807,37.7078269 L225.170807,21.9508994 L221,21.9508994 L221,16.1949441 L225.170807,16.1949441 L225.170807,9 L232.826087,9 L232.826087,9.01798736 Z" id="Path" fill="#EF6525"></path>
            <path d="M244,45.9821836 L244,7 L255.663889,7 C259.888889,7 263.102778,7.85518502 265.305556,9.5833714 C267.490278,11.3115578 268.591667,13.8414801 268.591667,17.2087711 C268.591667,19.2220192 268.031944,20.9858383 266.930556,22.4824121 C265.811111,23.9789858 264.294444,25.0479671 262.3625,25.6893559 C264.655556,26.1882138 266.515278,27.2928278 267.905556,29.0388305 C269.313889,30.7670169 270,32.7624486 270,35.0251256 C270,38.463682 268.880556,41.1539516 266.623611,43.0959342 C264.366667,45.0379169 261.243056,46 257.216667,46 L244,46 L244,45.9821836 Z M247.340278,24.4956601 L256.458333,24.4956601 C259.238889,24.4422111 261.405556,23.8008223 262.922222,22.5536775 C264.456944,21.3065327 265.215278,19.5070809 265.215278,17.1196894 C265.215278,14.6253997 264.420833,12.7724989 262.85,11.5788031 C261.261111,10.3851074 258.877778,9.79716766 255.663889,9.79716766 L247.340278,9.79716766 L247.340278,24.4956601 Z M247.340278,27.2750114 L247.340278,43.2028323 L257.361111,43.2028323 C260.213889,43.2028323 262.488889,42.4901782 264.15,41.0470534 C265.829167,39.6039287 266.659722,37.6263134 266.659722,35.0785747 C266.659722,32.6733668 265.865278,30.7670169 264.258333,29.3773413 C262.651389,27.9876656 260.448611,27.2750114 257.631944,27.2750114 L247.340278,27.2750114 Z" id="Shape" fill="#EF6525" fill-rule="nonzero"></path>
            <path d="M292.563218,45.4665086 C292.245977,44.5595732 292.052107,43.2080616 291.963985,41.429757 C290.85364,42.8879668 289.443678,44.0260818 287.716475,44.8085359 C285.989272,45.608773 284.173946,46 282.252874,46 C279.503448,46 277.265134,45.2175459 275.555556,43.6704209 C273.845977,42.1232958 273,40.1671606 273,37.7842324 C273,34.974511 274.163218,32.7338471 276.489655,31.0978068 C278.816092,29.4617664 282.041379,28.6437463 286.200766,28.6437463 L291.94636,28.6437463 L291.94636,25.3538826 C291.94636,23.2910492 291.311877,21.6550089 290.060536,20.4813278 C288.791571,19.2898637 286.958621,18.7030231 284.544061,18.7030231 C282.340996,18.7030231 280.508046,19.2720806 279.062835,20.4101956 C277.617625,21.5483106 276.895019,22.9176052 276.895019,24.5358625 L273.722605,24.5002964 C273.722605,22.2062833 274.780077,20.2145821 276.895019,18.5251926 C279.009962,16.8358032 281.618391,16 284.702682,16 C287.89272,16 290.413027,16.8002371 292.263602,18.4184944 C294.114176,20.0367516 295.0659,22.2774155 295.118774,25.1760522 L295.118774,38.8512152 C295.118774,41.6431535 295.418391,43.7415531 296,45.1286307 L296,45.4487255 L292.563218,45.4487255 L292.563218,45.4665086 Z M282.605364,43.1724956 C284.720307,43.1724956 286.623755,42.6567872 288.28046,41.6253705 C289.954789,40.5939538 291.170881,39.2068761 291.928736,37.4819206 L291.928736,31.1155898 L286.271264,31.1155898 C283.116475,31.1511559 280.631418,31.7379964 278.851341,32.8761114 C277.071264,34.0142264 276.172414,35.5613515 276.172414,37.5352697 C276.172414,39.153527 276.771648,40.5050385 277.95249,41.5720213 C279.150958,42.6390041 280.701916,43.1724956 282.605364,43.1724956 Z" id="Shape" fill="#EF6525" fill-rule="nonzero"></path>
            <path d="M304.101874,16.5434783 L304.209454,21.5797101 C305.303178,19.7681159 306.665852,18.3731884 308.297474,17.4311594 C309.929095,16.4710145 311.740016,16 313.712306,16 C316.832111,16 319.162999,16.8876812 320.687042,18.6630435 C322.211084,20.4384058 322.98207,23.1195652 323,26.6702899 L323,46 L319.790546,46 L319.790546,26.6521739 C319.772616,24.0253623 319.216789,22.0507246 318.123064,20.7644928 C317.02934,19.4782609 315.290139,18.826087 312.90546,18.826087 C310.91524,18.826087 309.140179,19.4601449 307.616137,20.7101449 C306.074165,21.9782609 304.94458,23.6811594 304.209454,25.8188406 L304.209454,46 L301,46 L301,16.5434783 L304.101874,16.5434783 Z" id="Path" fill="#EF6525"></path>
            <polygon id="Path" fill="#EF6525" points="335.051628 31.4017367 331.288324 34.9309872 331.288324 46 328 46 328 7 331.288324 7 331.288324 31.1878428 334.393963 27.9259598 345.75695 17.0173675 349.903892 17.0173675 337.29865 29.2271481 351 46 347.07228 46"></polygon>
            <circle id="Oval" fill="#EF6525" cx="183" cy="10" r="4"></circle>
            <path d="M353.175439,6.75697211 L351.964912,6.75697211 L351.964912,11 L351.210526,11 L351.210526,6.75697211 L350,6.75697211 L350,6 L353.175439,6 L353.175439,6.75697211 Z M357.298246,7.33466135 L356.140351,11 L355.719298,11 L354.561404,7.33466135 L354.561404,11 L353.824561,11 L353.824561,6 L354.736842,6 L355.912281,9.7250996 L357.087719,6 L358,6 L358,11 L357.263158,11 L357.263158,7.33466135 L357.298246,7.33466135 Z" id="Shape" fill="#EF6525" fill-rule="nonzero"></path>
            <rect id="Rectangle" fill="#000000" x="28" y="17" width="6" height="2"></rect>
            <rect id="Rectangle" fill="#000000" x="12" y="17" width="12" height="2"></rect>
            <rect id="Rectangle" fill="#000000" x="12" y="29" width="9" height="2"></rect>
            <rect id="Rectangle" fill="#000000" x="12" y="23" width="15" height="2"></rect>
            <polygon id="Path" fill="#000000" points="44.9472459 13 23 2.62784471 1.05275407 13 0 10.8768407 23 0 46 10.8768407"></polygon>
            <g id="Group" transform="translate(7.000000, 12.000000)" fill="#000000">
                <path d="M30.3672131,32.2531707 L28.5639344,31.0078049 L25.5344262,33.1014634 L22.504918,31.0078049 L19.4754098,33.1014634 L16.4459016,31.0078049 L13.4163934,33.1014634 L10.3868852,31.0078049 L7.39344262,33.1014634 L4.36393443,31.0078049 L2.56065574,32.2531707 L2.56065574,0.324878049 L0.108196721,1.58829268 L0.108196721,36.9458537 L4.36393443,34.0039024 L7.39344262,36.0795122 L10.4229508,33.9858537 L13.452459,36.0795122 L16.4819672,33.9858537 L19.5114754,36.0795122 L22.5409836,33.9858537 L25.5704918,36.0795122 L28.6,33.9858537 L32.8557377,36.9278049 L32.8557377,21.2253659 C32.0262295,22.2541463 31.1967213,23.3731707 30.4032787,24.582439 L30.4032787,32.2531707 L30.3672131,32.2531707 Z" id="Path"></path>
                <path d="M32.8196721,1.20926829 L30.3672131,0 L30.3672131,9.45756098 C31.2327869,8.64536585 32.0622951,7.92341463 32.8196721,7.3097561 L32.8196721,1.20926829 Z" id="Path"></path>
            </g>
            <path d="M31.8930958,41 L24,31.7240566 L27.6703786,28.5055031 L31.1447661,32.5738994 C37.5412027,22.7193396 45.2561247,18.2169811 45.6124722,18 L48,22.2853774 L46.8062361,20.1336478 L48,22.2672956 C47.9109131,22.3215409 39.5367483,27.2578616 33.5857461,37.9261006 L31.8930958,41 Z" id="Path" fill="#EF6525"></path>
        </g>
    </g>
</svg>