<?xml version="1.0" encoding="UTF-8"?>
<svg width="400px" height="300px" viewBox="0 0 400 300" version="1.1" xmlns="http://www.w3.org/2000/svg" xmlns:xlink="http://www.w3.org/1999/xlink">
    <!-- Generator: Sketch 52.2 (67145) - http://www.bohemiancoding.com/sketch -->
    <title>stars-group-logo</title>
    <desc>Created with Sketch.</desc>
    <defs>
        <path d="M0.111466664,0.15053333 C0.110399997,0.148399996 0.104133331,0.12973333 0.0931999977,0.0963999976 C0.0989333309,0.113599997 0.104133331,0.131199997 0.111466664,0.15053333 Z" id="path-1"></path>
        <linearGradient x1="50.05%" y1="29.5%" x2="50.05%" y2="70.0769%" id="linearGradient-3">
            <stop stop-color="#B02327" offset="0%"></stop>
            <stop stop-color="#B02327" offset="0.613497%"></stop>
            <stop stop-color="#B02327" offset="2.584317%"></stop>
            <stop stop-color="#EA2729" offset="52.1647%"></stop>
            <stop stop-color="#EA2729" offset="55.838903%"></stop>
            <stop stop-color="#EF5A45" offset="100%"></stop>
        </linearGradient>
        <path d="M0.125466664,0.12133333 L0.123999997,0.11773333 C0.125066664,0.11933333 0.125066664,0.11973333 0.125466664,0.12133333 Z" id="path-4"></path>
        <linearGradient x1="50.05%" y1="48.55%" x2="50.05%" y2="51.49035%" id="linearGradient-6">
            <stop stop-color="#B02327" offset="0%"></stop>
            <stop stop-color="#B02327" offset="0.613497%"></stop>
            <stop stop-color="#B02327" offset="2.584317%"></stop>
            <stop stop-color="#EA2729" offset="52.1647%"></stop>
            <stop stop-color="#EA2729" offset="55.838903%"></stop>
            <stop stop-color="#EF5A45" offset="100%"></stop>
        </linearGradient>
        <path d="M122.504664,116.55213 C120.960397,121.310397 106.772397,165.046663 102.619331,177.897329 L99.1587975,188.603995 L75.7317314,116.55213 L0,116.55213 L9.06250644,109.953597 C19.9739995,102.009864 57.1854652,74.9879981 61.2723985,72.0202649 C59.5521318,66.7333317 45.4775989,23.4349327 41.3234656,10.6718797 L37.8494657,0 L46.9343988,6.5895865 C57.8718652,14.5239996 95.0994643,41.594799 99.1478642,44.5385322 C99.1551975,44.5333322 99.1677309,44.5239989 99.1750642,44.5187989 L99.1750642,51.9734654 C99.1645309,51.974532 99.1541309,51.9759987 99.1437309,51.9759987 C97.7693309,51.9759987 96.3958643,51.5530654 95.224531,50.7067987 C95.2166643,50.7015987 68.0827983,30.9693326 51.7354654,19.0931995 C57.9827986,38.3041324 68.347865,70.1911982 68.347865,70.1911982 C68.5593316,70.7775982 68.6859983,71.5067982 68.6859983,72.2546649 C68.6859983,74.3811981 67.6541316,76.4010648 65.9265317,77.6578647 C65.9245317,77.6587981 38.770799,97.3770642 22.4281328,109.255197 L76.1723981,109.255197 C79.089598,109.255197 81.6453313,111.111464 82.5327979,113.873464 L99.1401309,164.951996 C105.366664,145.73333 115.70573,113.863997 115.70573,113.863997 C116.615064,111.101597 119.171864,109.255197 122.073997,109.255197 L188.226662,109.255197 L189.207995,109.953597 L198.275995,116.55213 L122.504664,116.55213 Z" id="path-7"></path>
        <linearGradient x1="50.0000672%" y1="0%" x2="50.0000673%" y2="100%" id="linearGradient-9">
            <stop stop-color="#B02327" offset="0%"></stop>
            <stop stop-color="#B02327" offset="0.613497%"></stop>
            <stop stop-color="#B02327" offset="2.584317%"></stop>
            <stop stop-color="#EA2729" offset="52.1647%"></stop>
            <stop stop-color="#EA2729" offset="55.838903%"></stop>
            <stop stop-color="#EF5A45" offset="100%"></stop>
        </linearGradient>
    </defs>
    <g id="stars-group-logo" stroke="none" stroke-width="1" fill="none" fill-rule="evenodd">
        <g id="The-Stars-Group-Stacked-Positive-Logo-CMYK" transform="translate(58.000000, 41.000000)">
            <g id="g10" transform="translate(126.666663, 94.933336) scale(-1, 1) rotate(-180.000000) translate(-126.666663, -94.933336) translate(0.000000, 0.266671)">
                <g id="g12">
                    <polyline id="path14" fill="#231F20" points="79.8645313 72.2770649 82.0139979 72.2770649 82.0139979 67.1729317 99.2614642 67.1729317 99.2614642 64.701065 82.0139979 64.701065 82.0139979 59.5969318 79.8645313 59.5969318 79.8645313 72.2770649"></polyline>
                    <polyline id="path16" fill="#231F20" points="99.2614642 74.9917315 79.8645313 74.9917315 79.8645313 77.4639981 88.2463978 77.4639981 88.2463978 84.2603979 79.8645313 84.2603979 79.8645313 86.7322645 99.2614642 86.7322645 99.2614642 84.2603979 90.3958644 84.2603979 90.3958644 77.4639981 99.2614642 77.4639981 99.2614642 74.9917315"></polyline>
                    <polyline id="path18" fill="#231F20" points="99.2614642 90.5155977 79.8645313 90.5155977 79.8645313 100.509864 82.0139979 100.509864 82.0139979 92.986931 88.2463978 92.986931 88.2463978 99.9729308 90.3958644 99.9729308 90.3958644 92.986931 97.1125309 92.986931 97.1125309 100.671331 99.2614642 100.671331 99.2614642 90.5155977"></polyline>
                    <g id="g20">
                        <g id="g22-Clipped">
                            <g id="g22"></g>
                        </g>
                    </g>
                    <g id="g44" transform="translate(61.333332, 72.399998)">
                        <g id="g46-Clipped">
                            <mask id="mask-2" fill="white">
                                <use xlink:href="#path-1"></use>
                            </mask>
                            <g id="path48"></g>
                            <g id="g46" mask="url(#mask-2)" fill="url(#linearGradient-3)">
                                <path d="M0.111466664,0.15053333 C0.110399997,0.148399996 0.104133331,0.12973333 0.0931999977,0.0963999976 C0.0989333309,0.113599997 0.104133331,0.131199997 0.111466664,0.15053333" id="path66"></path>
                            </g>
                        </g>
                    </g>
                    <g id="g68" transform="translate(75.466665, 115.999997)">
                        <g id="g70-Clipped">
                            <mask id="mask-5" fill="white">
                                <use xlink:href="#path-4"></use>
                            </mask>
                            <g id="path72"></g>
                            <g id="g70" mask="url(#mask-5)" fill="url(#linearGradient-6)">
                                <path d="M0.125466664,0.12133333 L0.123999997,0.11773333 C0.125066664,0.11933333 0.125066664,0.11973333 0.125466664,0.12133333" id="path90"></path>
                            </g>
                        </g>
                    </g>
                    <path d="M117.91773,58.8202652 C107.275464,58.8202652 105.283864,65.080665 105.738531,72.1947982 L114.332264,72.1947982 C114.332264,68.268265 114.503064,64.9671984 119.227064,64.9671984 C122.129197,64.9671984 123.55213,66.8453317 123.55213,69.6338649 C123.55213,77.0317314 106.251064,77.4874647 106.251064,89.7239978 C106.251064,96.1546643 109.324531,101.276531 119.796397,101.276531 C128.16253,101.276531 132.316663,97.5202642 131.74733,88.9270644 L123.381197,88.9270644 C123.381197,91.9999977 122.86933,95.1302643 119.397864,95.1302643 C116.60933,95.1302643 114.958797,93.593731 114.958797,90.7483977 C114.958797,82.9510646 132.25933,83.6343979 132.25933,70.7150649 C132.25933,60.0723985 124.463064,58.8202652 117.91773,58.8202652" id="path92" fill="#231F20"></path>
                    <polyline id="path94" fill="#231F20" points="162.657329 100.593731 162.657329 93.764531 153.095996 93.764531 153.095996 59.5035985 144.502663 59.5035985 144.502663 93.764531 134.94133 93.764531 134.94133 100.593731 162.657329 100.593731"></polyline>
                    <path d="M176.386662,92.6827977 L176.271996,92.6827977 L172.345329,74.9265315 L180.541329,74.9265315 L176.386662,92.6827977 Z M159.825329,59.5035985 L171.207996,100.593731 L182.533329,100.593731 L193.687995,59.5035985 L184.638662,59.5035985 L182.361329,68.6093316 L170.638662,68.6093316 L168.305329,59.5035985 L159.825329,59.5035985 Z" id="path96" fill="#231F20" fill-rule="nonzero"></path>
                    <path d="M205.775995,82.8374646 L209.589328,82.8374646 C213.003995,82.8374646 213.970661,86.2521312 213.970661,88.8697311 C213.970661,92.7963977 212.319995,94.276531 209.589328,94.276531 L205.775995,94.276531 L205.775995,82.8374646 Z M205.775995,59.5035985 L197.181328,59.5035985 L197.181328,100.593731 L213.059995,100.593731 C218.922661,100.593731 222.678661,96.8379976 222.678661,89.8374644 C222.678661,84.6015979 220.629328,80.6745313 215.051995,79.763998 L215.051995,79.649998 C216.930661,79.4229313 222.507994,78.967198 222.507994,71.5687982 C222.507994,68.9505316 222.678661,61.2114651 223.474661,59.5035985 L215.051995,59.5035985 C213.913328,62.0078651 214.141328,64.7963984 214.141328,67.4713316 C214.141328,72.3650649 214.597328,76.5202648 207.995995,76.5202648 L205.775995,76.5202648 L205.775995,59.5035985 Z" id="path98" fill="#231F20" fill-rule="nonzero"></path>
                    <path d="M238.967994,58.8202652 C228.325328,58.8202652 226.334661,65.080665 226.789328,72.1947982 L235.382661,72.1947982 C235.382661,68.268265 235.553327,64.9671984 240.277327,64.9671984 C243.178661,64.9671984 244.602661,66.8453317 244.602661,69.6338649 C244.602661,77.0317314 227.301328,77.4874647 227.301328,89.7239978 C227.301328,96.1546643 230.374661,101.276531 240.846661,101.276531 C249.211994,101.276531 253.36666,97.5202642 252.797327,88.9270644 L244.431994,88.9270644 C244.431994,91.9999977 243.919994,95.1302643 240.447994,95.1302643 C237.659994,95.1302643 236.009327,93.593731 236.009327,90.7483977 C236.009327,82.9510646 253.309327,83.6343979 253.309327,70.7150649 C253.309327,60.0723985 245.513327,58.8202652 238.967994,58.8202652" id="path100" fill="#231F20"></path>
                    <g id="g102">
                        <g id="g104-Clipped">
                            <mask id="mask-8" fill="white">
                                <use xlink:href="#path-7"></use>
                            </mask>
                            <g id="path106"></g>
                            <g id="g104" mask="url(#mask-8)" fill="url(#linearGradient-9)">
                                <path d="M122.504664,116.55213 C120.960397,121.310397 106.772397,165.046663 102.619331,177.897329 L99.1587975,188.603995 L75.7317314,116.55213 L0,116.55213 L9.06250644,109.953597 C19.9739995,102.009864 57.1854652,74.9879981 61.2723985,72.0202649 C59.5521318,66.7333317 45.4775989,23.4349327 41.3234656,10.6718797 L37.8494657,0 L46.9343988,6.5895865 C57.8718652,14.5239996 95.0994643,41.594799 99.1478642,44.5385322 C99.1551975,44.5333322 99.1677309,44.5239989 99.1750642,44.5187989 L99.1750642,51.9734654 C99.1645309,51.974532 99.1541309,51.9759987 99.1437309,51.9759987 C97.7693309,51.9759987 96.3958643,51.5530654 95.224531,50.7067987 C95.2166643,50.7015987 68.0827983,30.9693326 51.7354654,19.0931995 C57.9827986,38.3041324 68.347865,70.1911982 68.347865,70.1911982 C68.5593316,70.7775982 68.6859983,71.5067982 68.6859983,72.2546649 C68.6859983,74.3811981 67.6541316,76.4010648 65.9265317,77.6578647 C65.9245317,77.6587981 38.770799,97.3770642 22.4281328,109.255197 L76.1723981,109.255197 C79.089598,109.255197 81.6453313,111.111464 82.5327979,113.873464 L99.1401309,164.951996 C105.366664,145.73333 115.70573,113.863997 115.70573,113.863997 C116.615064,111.101597 119.171864,109.255197 122.073997,109.255197 L188.226662,109.255197 L189.207995,109.953597 L198.275995,116.55213 L122.504664,116.55213" id="path124"></path>
                            </g>
                        </g>
                    </g>
                    <path d="M123.613597,39.799999 C123.667197,43.3854656 123.078664,46.5426655 118.798397,46.5426655 C113.768797,46.5426655 113.768797,39.7469323 113.768797,32.2562659 C113.768797,20.1639995 114.945864,18.0229329 119.54733,18.0229329 C120.885464,18.0229329 122.32973,18.3442662 123.560397,18.7718662 L123.560397,27.3333326 L119.17293,27.3333326 L119.17293,33.2734658 L131.639597,33.2734658 L131.639597,13.6895997 C129.446397,13.261453 123.93493,12.405213 120.725064,12.405213 C107.133864,12.405213 105.582264,18.0229329 105.582264,32.6838658 C105.582264,42.4229323 106.063997,52.321332 119.27973,52.321332 C127.19893,52.321332 132.12133,47.8802655 131.639597,39.799999 L123.613597,39.799999" id="path126" fill="#231F20"></path>
                    <path d="M144.98533,34.9854658 L148.56933,34.9854658 C151.779996,34.9854658 152.68933,38.194799 152.68933,40.6562657 C152.68933,44.3478656 151.13733,45.7401322 148.56933,45.7401322 L144.98533,45.7401322 L144.98533,34.9854658 Z M144.98533,13.0468797 L136.90533,13.0468797 L136.90533,51.6786654 L151.83333,51.6786654 C157.345329,51.6786654 160.875996,48.1478655 160.875996,41.5650656 C160.875996,36.6442658 158.949329,32.9505325 153.706663,32.0958659 L153.706663,31.9879992 C155.471996,31.7745325 160.715996,31.3469325 160.715996,24.3906661 C160.715996,21.9291995 160.875996,14.652133 161.625329,13.0468797 L153.706663,13.0468797 C152.635996,15.4015996 152.84933,18.0229329 152.84933,20.5385328 C152.84933,25.1385327 153.278663,29.0453326 147.071996,29.0453326 L144.98533,29.0453326 L144.98533,13.0468797 Z" id="path128" fill="#231F20" fill-rule="nonzero"></path>
                    <path d="M183.403995,32.3625325 C183.403995,42.2614656 182.814662,46.5426655 178.266662,46.5426655 C173.718662,46.5426655 173.130662,42.2614656 173.130662,32.3625325 C173.130662,22.4639994 173.718662,18.1838662 178.266662,18.1838662 C182.814662,18.1838662 183.403995,22.4639994 183.403995,32.3625325 Z M164.943996,32.3625325 C164.943996,42.5827989 164.943996,52.321332 178.266662,52.321332 C191.590662,52.321332 191.590662,42.5827989 191.590662,32.3625325 C191.590662,22.2505328 191.590662,12.405213 178.266662,12.405213 C164.943996,12.405213 164.943996,22.2505328 164.943996,32.3625325 Z" id="path130" fill="#231F20" fill-rule="nonzero"></path>
                    <path d="M222.591994,51.6786654 L222.591994,24.2838661 C222.591994,18.5041329 219.327995,12.405213 209.482661,12.405213 C200.601328,12.405213 196.319995,17.0067996 196.319995,24.2838661 L196.319995,51.6786654 L204.399995,51.6786654 L204.399995,24.8187994 C204.399995,20.0562662 206.433328,18.1838662 209.375995,18.1838662 C212.907995,18.1838662 214.511995,20.5385328 214.511995,24.8187994 L214.511995,51.6786654 L222.591994,51.6786654" id="path132" fill="#231F20"></path>
                    <path d="M235.942661,34.7171991 L240.437327,34.7171991 C242.843994,34.7171991 244.503994,37.3385324 244.503994,39.9078657 C244.503994,43.0639989 243.646661,45.7401322 240.007994,45.7401322 L235.942661,45.7401322 L235.942661,34.7171991 Z M227.862661,51.6786654 L242.417327,51.6786654 C249.799994,51.6786654 252.689327,47.1838655 252.689327,40.1213323 C252.689327,35.7333324 251.405327,28.7770659 241.934661,28.7770659 L235.942661,28.7770659 L235.942661,13.0468797 L227.862661,13.0468797 L227.862661,51.6786654 Z" id="path134" fill="#231F20" fill-rule="nonzero"></path>
                </g>
            </g>
        </g>
    </g>
</svg>