<?xml version="1.0" encoding="UTF-8"?>
<svg width="400px" height="300px" viewBox="0 0 400 300" version="1.1" xmlns="http://www.w3.org/2000/svg" xmlns:xlink="http://www.w3.org/1999/xlink">
    <!-- Generator: Sketch 52.2 (67145) - http://www.bohemiancoding.com/sketch -->
    <title>team-extensions-logo</title>
    <desc>Created with Sketch.</desc>
    <g id="team-extensions-logo" stroke="none" stroke-width="1" fill="none" fill-rule="evenodd">
        <g id="team-extension-c06ffeb4" transform="translate(17.000000, 113.000000)">
            <g id="g10" transform="translate(183.500000, 37.500000) scale(-1, 1) rotate(-180.000000) translate(-183.500000, -37.500000) ">
                <g id="g12">
                    <polyline id="path14" fill="#7A4573" points="26.3810723 30.2293461 35.1743364 30.2293461 35.1743364 39.0901609 26.3810723 30.2293461 26.3810723 30.2293461"></polyline>
                    <polyline id="path16" fill="#8A5E98" points="26.3810723 39.0901609 26.3810723 30.2293461 35.1743364 39.0901609 35.1743364 39.0901609 26.3810723 39.0901609"></polyline>
                    <polyline id="path18" fill="#4494D6" points="17.5878996 21.3692683 26.3810723 21.3692683 26.3810723 30.2293461 17.5878996 21.3692683 17.5878996 21.3692683"></polyline>
                    <polyline id="path20" fill="#5BB8E7" points="17.5878996 30.2293461 17.5878996 21.3692683 26.3810723 30.2293461 26.3810723 30.2293461 17.5878996 30.2293461"></polyline>
                    <polyline id="path22" fill="#4C3D8C" points="26.3810723 30.2293461 26.3810723 21.3707421 35.1743364 30.2293461 35.1743364 30.2293461 26.3810723 30.2293461"></polyline>
                    <polyline id="path24" fill="#5C53A1" points="26.3810723 21.3692683 35.1743364 21.3692683 35.1743364 30.2293461 26.3810723 21.3707421 26.3810723 21.3692683"></polyline>
                    <polyline id="path26" fill="#357AC1" points="17.5878996 21.3692683 17.5878996 12.5107011 26.3810723 21.3692683 26.3810723 21.3692683 17.5878996 21.3692683"></polyline>
                    <polygon id="path28" fill="#285D9E" points="26.3810723 12.5107011 26.3810723 21.3692683 17.5878996 12.5107011"></polygon>
                    <polygon id="path30" fill="#28567F" points="35.1743364 12.5107011 35.1743364 21.3692683 26.3818037 12.5107011"></polygon>
                    <polyline id="path32" fill="#5D64B8" points="26.3810723 21.3692683 26.3810723 12.5107011 26.3818037 12.5107011 35.1743364 21.3692683 35.1743364 21.3692683 26.3810723 21.3692683"></polyline>
                    <polyline id="path34" fill="#9A182F" points="26.3810723 39.0901609 35.1743364 39.0901609 35.1743364 47.9485807 26.3810723 39.0901609 26.3810723 39.0901609"></polyline>
                    <polyline id="path36" fill="#8A5E98" points="17.5878996 30.2293461 26.3810723 30.2293461 26.3810723 39.0901609 17.5878996 30.2293461 17.5878996 30.2293461"></polyline>
                    <polyline id="path38" fill="#65AD41" points="8.79395895 21.3692683 17.5878996 21.3692683 17.5878996 30.2293461 17.5864734 30.2293461 8.79395895 21.3707421 8.79395895 21.3692683"></polyline>
                    <polygon id="path40" fill="#9AD86E" points="8.79395895 21.3707421 17.5864734 30.2293461 8.79395895 30.2293461"></polygon>
                    <polygon id="path42" fill="#EE651B" points="26.3810723 47.9500545 35.1743364 56.8086585 26.3810723 56.8086585"></polygon>
                    <polygon id="path44" fill="#6266A4" points="17.5878996 39.0901609 26.3810723 47.9485807 17.5878996 47.9485807"></polygon>
                    <polygon id="path46" fill="#8A5E98" points="8.79395895 30.2293461 17.5864734 39.0901609 8.79395895 39.0901609"></polygon>
                    <polyline id="path48" fill="#E14822" points="43.9690633 65.6694733 43.9690633 65.6694733 35.1750678 65.6694733 35.1750678 74.5280773 43.9690633 65.6694733"></polyline>
                    <polygon id="path50" fill="#E14822" points="43.9690633 56.8086585 43.9690633 65.6694733 52.7623275 56.8086585"></polygon>
                    <polygon id="path52" fill="#EE651B" points="52.7623275 56.8086585 43.9690633 65.6694733 52.7623275 65.6694733"></polygon>
                    <polygon id="path54" fill="#E14822" points="61.5555916 47.9500545 52.7623275 56.8086585 61.5555916 56.8086585"></polygon>
                    <polyline id="path56" fill="#EE1F35" points="61.5555916 47.9485807 52.7623275 47.9485807 52.7623275 56.8086585 61.5555916 47.9500545 61.5555916 47.9485807"></polyline>
                    <polyline id="path58" fill="#9A182F" points="70.3494043 39.0901609 61.5561401 39.0901609 61.5561401 47.9485807 70.3494043 39.0901609 70.3494043 39.0901609"></polyline>
                    <polygon id="path60" fill="#FFFFFF" points="52.7623275 47.9485807 52.7623275 47.9485807 52.7623275 47.9500545"></polygon>
                    <polyline id="path62" fill="#6266A4" points="43.9690633 56.8086585 43.9690633 56.8086585 35.1750678 56.8086585 35.1750678 65.6694733 43.9690633 56.8086585"></polyline>
                    <polygon id="path64" fill="#4D4B89" points="43.9690633 65.6694733 43.9690633 56.8086585 35.1750678 65.6694733"></polygon>
                    <polyline id="path66" fill="#E14822" points="52.7623275 47.9485807 43.9690633 47.9485807 43.9690633 56.8086585 52.7623275 47.9500545 52.7623275 47.9485807"></polyline>
                    <polyline id="path68" fill="#EE651B" points="52.7623275 56.8086585 52.7623275 47.9500545 43.9690633 56.8086585 43.9690633 56.8086585 52.7623275 56.8086585"></polyline>
                    <polyline id="path70" fill="#4D4B89" points="61.5555916 39.0901609 61.5555916 39.0901609 52.7623275 39.0901609 52.7623275 47.9485807 61.5555916 39.0901609"></polyline>
                    <polygon id="path72" fill="#6266A4" points="61.5555916 47.9485807 61.5555916 39.0901609 52.7623275 47.9485807"></polygon>
                    <polygon id="path74" fill="#FFFFFF" points="52.7630589 39.0901609 52.7623275 39.0901609 52.7623275 39.0901609"></polygon>
                    <polygon id="path76" fill="#E14822" points="43.9690633 56.8086585 43.9690633 47.9500545 35.1750678 56.8086585"></polygon>
                    <polyline id="path78" fill="#EE1F35" points="52.7623275 47.9485807 52.7623275 39.0901609 43.9690633 47.9485807 43.9690633 47.9485807 52.7623275 47.9485807"></polyline>
                    <polygon id="path80" fill="#8A5E98" points="61.5555916 39.0901609 61.5555916 30.2293461 52.7630589 39.0901609"></polygon>
                    <polygon id="path82" fill="#FFFFFF" points="52.7630589 30.2293461 52.7623275 30.2293461 52.7623275 30.2293461"></polygon>
                    <polyline id="path84" fill="#4D4B89" points="43.9690633 39.0901609 43.9690633 39.0901609 35.1750678 39.0901609 35.1750678 47.9485807 43.9690633 39.0901609"></polyline>
                    <polyline id="path86" fill="#7A4573" points="52.7623275 30.2293461 43.9690633 30.2293461 43.9690633 39.0901609 52.7623275 30.2293461 52.7623275 30.2293461"></polyline>
                    <polygon id="path88" fill="#6266A4" points="61.5555916 30.2293461 61.5555916 21.3707421 52.7630589 30.2293461"></polygon>
                    <polyline id="path90" fill="#7268BB" points="61.5555916 21.3707421 61.5555916 21.3692683 52.7623275 21.3692683 52.7623275 30.2293461 52.7630589 30.2293461 61.5555916 21.3707421"></polyline>
                    <polygon id="path92" fill="#FFFFFF" points="52.7630589 21.3692683 52.7623275 21.3692683 52.7623275 21.3707421"></polygon>
                    <polygon id="path94" fill="#8A5E98" points="43.9690633 39.0901609 43.9690633 30.2293461 35.1750678 39.0901609"></polygon>
                    <polyline id="path96" fill="#7A4573" points="43.9690633 30.2293461 43.9690633 30.2293461 35.1750678 30.2293461 35.1750678 39.0901609 43.9690633 30.2293461"></polyline>
                    <polygon id="path98" fill="#4C3D8C" points="52.7623275 21.3707421 43.9690633 30.2293461 52.7623275 30.2293461"></polygon>
                    <polyline id="path100" fill="#5C53A1" points="52.7623275 21.3692683 43.9690633 21.3692683 43.9690633 30.2293461 52.7623275 21.3707421 52.7623275 21.3692683"></polyline>
                    <g id="path102"></g>
                    <polyline id="path104" fill="#7268BB" points="43.9690633 21.3707421 43.9690633 21.3692683 35.1750678 21.3692683 35.1750678 30.2293461 43.9690633 21.3707421"></polyline>
                    <polygon id="path106" fill="#6266A4" points="43.9690633 30.2293461 43.9690633 21.3707421 35.1750678 30.2293461"></polygon>
                    <polygon id="path108" fill="#5D64B8" points="52.7623275 12.5107011 43.9690633 21.3692683 52.7623275 21.3692683"></polygon>
                    <polyline id="path110" fill="#28567F" points="52.7623275 12.5107011 43.9690633 12.5107011 43.9690633 21.3692683 52.7623275 12.5107011 52.7623275 12.5107011"></polyline>
                    <polygon id="path112" fill="#EE651B" points="43.9690633 21.3692683 43.9690633 12.5107011 35.1750678 21.3692683"></polygon>
                    <polyline id="path114" fill="#E14822" points="43.9690633 12.5107011 43.9690633 12.5107011 35.1750678 12.5107011 35.1750678 21.3692683 43.9690633 12.5107011"></polyline>
                    <polygon id="path116" fill="#FFFFFF" points="52.7630589 65.6694733 52.7623275 65.6694733 52.7623275 65.6694733"></polygon>
                    <polyline id="path118" fill="#6266A4" points="61.5555916 56.8086585 61.5555916 56.8086585 52.7623275 56.8086585 52.7623275 65.6694733 52.7630589 65.6694733 61.5555916 56.8086585"></polyline>
                    <polyline id="path120" fill="#E14822" points="26.3810723 56.8086585 35.1743364 56.8086585 35.1743364 65.6694733 26.3810723 56.8108692 26.3810723 56.8086585"></polyline>
                    <polygon id="path122" fill="#EE651B" points="26.3810723 56.8108692 35.1743364 65.6694733 26.3810723 65.6694733"></polygon>
                    <polygon id="path124" fill="#97D548" points="17.5878996 47.9500545 26.3803409 56.8086585 17.5878996 56.8086585"></polygon>
                    <polyline id="path126" fill="#65AD41" points="17.5878996 47.9485807 26.3810723 47.9485807 26.3810723 56.8086585 26.3803409 56.8086585 17.5878996 47.9500545 17.5878996 47.9485807"></polyline>
                    <polyline id="path128" fill="#9A182F" points="8.79395895 39.0901609 17.5878996 39.0901609 17.5878996 47.9485807 17.5864734 47.9485807 8.79395895 39.0901609 8.79395895 39.0901609"></polyline>
                    <polygon id="path130" fill="#EE1F35" points="8.79395895 39.0901609 17.5864734 47.9485807 8.79395895 47.9485807"></polygon>
                    <polyline id="path132" fill="#F79214" points="26.3810723 65.6694733 26.3810723 65.6694733 35.1743364 65.6694733 35.1743364 74.5280773 35.173605 74.5280773 26.3810723 65.6694733"></polyline>
                    <polyline id="path134" fill="#F79214" points="17.5878996 56.8086585 26.3810723 56.8086585 26.3810723 65.6694733 26.3803409 65.6694733 17.5878996 56.8108692 17.5878996 56.8086585"></polyline>
                    <polygon id="path136" fill="#F9AF0F" points="17.5878996 56.8108692 26.3803409 65.6694733 17.5878996 65.6694733"></polygon>
                    <polyline id="path138" fill="#42A53B" points="8.79395895 47.9485807 17.5878996 47.9485807 17.5878996 56.8086585 17.5864734 56.8086585 8.79395895 47.9500545 8.79395895 47.9485807"></polyline>
                    <polygon id="path140" fill="#36923B" points="8.79395895 47.9500545 17.5864734 56.8086585 8.79395895 56.8086585"></polygon>
                    <polyline id="path142" fill="#36923B" points="0 39.0901609 8.79322755 39.0901609 8.79322755 47.9485807 8.79251443 47.9485807 0 39.0901609 0 39.0901609"></polyline>
                    <polyline id="path144" fill="#47975B" points="8.79395895 56.8086585 17.5878996 56.8086585 17.5878996 65.6694733 17.5857603 65.6694733 8.79395895 56.8108692 8.79395895 56.8086585"></polyline>
                    <path d="M24.8339771,72.9715672 C22.2826689,72.1819824 19.8556987,71.1075869 17.5878996,69.7857784 L17.5878996,65.6709471 L24.8339771,72.9715672" id="path146" fill="#4C96B7"></path>
                    <path d="M17.5878996,69.7857784 C15.5579703,68.6034276 13.6580474,67.2217462 11.9116821,65.6694733 L17.5878996,65.6694733 L17.5878996,69.7857784" id="path148" fill="#98DBC6"></path>
                    <path d="M17.5857603,65.6694733 L11.9116821,65.6694733 C10.8095894,64.6886637 9.76748976,63.6380332 8.79395895,62.526056 L8.79395895,56.8108692 L17.5857603,65.6694733" id="path150" fill="#4EA97F"></path>
                    <path d="M4.70767846,56.8086585 C3.3955823,54.5239102 2.32991329,52.0792553 1.54636928,49.5080384 L8.79251443,56.8086585 L4.70767846,56.8086585" id="path152" fill="#9AD86E"></path>
                    <path d="M8.79322755,62.526056 C7.25258697,60.7667151 5.88121078,58.8524416 4.70767846,56.8086585 L8.79322755,56.8086585 L8.79322755,62.526056" id="path154" fill="#98DBC6"></path>
                    <path d="M8.79322755,56.8086585 L8.79251443,56.8086585 L1.54636928,49.5080384 C1.38923333,48.9935003 1.24281058,48.4739881 1.10852909,47.9485807 L8.79322755,47.9485807 L8.79322755,56.8086585" id="path156" fill="#42A53B"></path>
                    <path d="M17.5878996,65.6694733 L26.3810723,65.6694733 L26.3810723,73.4125999 C25.8604979,73.2773793 25.3446776,73.128342 24.8339771,72.9715672 L17.5878996,65.6709471 L17.5878996,65.6694733" id="path158" fill="#47975B"></path>
                    <path d="M35.173605,74.5280773 C32.1381095,74.5280773 29.1916621,74.1408381 26.3810723,73.4125999 L26.3810723,65.6694733 L35.173605,74.5280773" id="path160" fill="#F9AF0F"></path>
                    <path d="M43.9690633,73.4125999 C41.1584736,74.1408381 38.2120261,74.5280773 35.1750678,74.5280773 L43.9690633,65.6694733 L43.9690633,73.4125999" id="path162" fill="#EE651B"></path>
                    <path d="M52.7623275,69.7857784 C50.494437,71.1075869 48.0667354,72.1819824 45.5154271,72.9715672 L52.7623275,65.6694733 L52.7623275,69.7857784" id="path164" fill="#4D4B89"></path>
                    <path d="M61.5561401,56.8086585 L68.8030405,49.5080384 C68.0202589,52.0772289 66.9546082,54.5239102 65.6424755,56.8086585 L61.5561401,56.8086585" id="path166" fill="#E14822"></path>
                    <path d="M58.4378135,65.6694733 C56.6914117,67.2217462 54.7914157,68.6034276 52.7623275,69.7857784 L52.7623275,65.6694733 L58.4378135,65.6694733" id="path168" fill="#6266A4"></path>
                    <path d="M52.7623275,65.6694733 L45.5154271,72.9715672 C45.0047266,73.1298158 44.4890892,73.2773793 43.9690633,73.4125999 L43.9690633,65.6694733 L52.7623275,65.6694733" id="path170" fill="#6266A4"></path>
                    <path d="M61.5561401,56.8086585 L65.6424755,56.8086585 C64.4689432,58.8524416 63.097567,60.7667151 61.5561401,62.526056 L61.5561401,56.8086585" id="path172" fill="#6266A4"></path>
                    <path d="M61.5561401,47.9485807 L70.3494043,39.0901609 C70.3494043,42.1484665 69.9652361,45.1183446 69.241698,47.9485807 L61.5561401,47.9485807" id="path174" fill="#EE1F35"></path>
                    <path d="M61.5555916,56.8086585 L61.5555916,62.5282667 C60.5819145,63.6380332 59.5413142,64.6886637 58.4378135,65.6694733 L52.7630589,65.6694733 L61.5555916,56.8086585" id="path176" fill="#4D4B89"></path>
                    <path d="M61.5561401,39.0901609 L69.4580097,31.1289128 C70.040936,33.6870498 70.3494043,36.3518526 70.3494043,39.0901609 L61.5561401,39.0901609" id="path178" fill="#8A5E98"></path>
                    <path d="M61.5561401,21.3692683 L65.6424755,21.3692683 C66.2254018,22.3839751 66.7589585,23.4288947 67.2409516,24.5010794 L61.5561401,30.2293461 L61.5561401,21.3692683" id="path180" fill="#7268BB"></path>
                    <path d="M61.5561401,47.9485807 L69.241698,47.9485807 C69.1080345,48.4739881 68.961023,48.9922107 68.8030405,49.5080384 L61.5561401,56.8086585 L61.5561401,47.9485807" id="path182" fill="#EE651B"></path>
                    <path d="M17.5878996,12.5107011 L11.9116821,12.5107011 C12.921655,11.6126082 13.9823322,10.7728038 15.0901299,9.99559886 L17.5878996,12.5107011" id="path184" fill="#65AD41"></path>
                    <path d="M20.6964437,6.7824712 C22.5141572,5.95489933 24.4141532,5.27629113 26.3810723,4.7675192 L26.3810723,12.5107011 L20.6964437,6.7824712" id="path186" fill="#5BB8E7"></path>
                    <path d="M61.5561401,30.2293461 L67.2409516,24.5010794 C68.0630459,26.3346627 68.7352031,28.2489362 69.241698,30.2293461 L61.5561401,30.2293461" id="path188" fill="#4D4B89"></path>
                    <path d="M61.5561401,15.6518524 C62.4475347,16.6701331 63.2811485,17.7387807 64.0525933,18.8542398 L61.5561401,21.3692683 L61.5561401,15.6518524" id="path190" fill="#EE651B"></path>
                    <path d="M52.7623275,8.39227737 C53.6178834,8.89240919 54.4500344,9.42710145 55.2593292,9.99559886 L52.7623275,12.5107011 L52.7623275,8.39227737" id="path192" fill="#EE651B"></path>
                    <path d="M43.9690633,12.5107011 L43.9690633,4.7675192 C45.935434,5.27629113 47.8352471,5.95489933 49.6546062,6.7824712 L43.9690633,12.5107011" id="path194" fill="#EE651B"></path>
                    <path d="M35.1750678,12.5107011 L35.1750678,3.64994162 C37.8920383,3.64994162 40.5376973,3.9615384 43.0776688,4.54947146 L35.1750678,12.5107011" id="path196" fill="#5D64B8"></path>
                    <path d="M8.79395895,21.3692683 L8.79395895,15.6518524 C9.28107177,15.0955874 9.78248348,14.5544289 10.3024728,14.0305506 L17.5878996,21.3692683 L8.79395895,21.3692683" id="path198" fill="#98DBC6"></path>
                    <path d="M26.3810723,12.5107011 L17.5878996,12.5107011 L17.5878996,8.39227737 C18.5936669,7.80578127 19.6306102,7.2682151 20.6964437,6.7824712 L26.3810723,12.5107011" id="path200" fill="#98DBC6"></path>
                    <path d="M61.5561401,30.2293461 L69.241698,30.2293461 C69.3181294,30.5279735 69.3901723,30.8266009 69.4580097,31.1289128 L61.5561401,39.0901609 L61.5561401,30.2293461" id="path202" fill="#7A4573"></path>
                    <path d="M64.0525933,18.8542398 C64.6161375,19.6688791 65.1475001,20.5070991 65.6424755,21.3692683 L61.5561401,21.3692683 L64.0525933,18.8542398" id="path204" fill="#EE1F35"></path>
                    <path d="M55.2593292,9.99559886 C56.3672183,10.7728038 57.4277493,11.6126082 58.4378135,12.5107011 L52.7623275,12.5107011 L55.2593292,9.99559886" id="path206" fill="#EE1F35"></path>
                    <path d="M43.9690633,12.5107011 L49.6546062,6.7824712 C50.7195255,7.2682151 51.7566516,7.80578127 52.7623275,8.39227737 L52.7623275,12.5107011 L43.9690633,12.5107011" id="path208" fill="#E14822"></path>
                    <path d="M35.1750678,12.5107011 L43.0776688,4.54947146 C43.3762631,4.61783705 43.6733946,4.68979502 43.9690633,4.7675192 L43.9690633,12.5107011 L35.1750678,12.5107011" id="path210" fill="#28567F"></path>
                    <path d="M15.0901299,9.99559886 C15.8993881,9.42710145 16.7315026,8.89240919 17.5878996,8.39227737 L17.5878996,12.5107011 L15.0901299,9.99559886" id="path212" fill="#4EA97F"></path>
                    <path d="M4.70696535,21.3692683 C5.20265384,20.5070991 5.73335814,19.6688791 6.29690233,18.8542398 L8.79322755,21.3692683 L4.70696535,21.3692683" id="path214" fill="#65AD41"></path>
                    <path d="M61.5555916,21.3692683 L52.7630589,21.3692683 L60.0476263,14.0305506 C60.5669208,14.5544289 61.0697587,15.0955874 61.5555916,15.6518524 L61.5555916,21.3692683" id="path216" fill="#E14822"></path>
                    <path d="M0,39.0901609 C0,36.3518526 0.308559642,33.6870498 0.892109466,31.1289128 L8.79322755,39.0901609 L0,39.0901609" id="path218" fill="#42A53B"></path>
                    <path d="M8.79322755,21.3692683 L6.29690233,18.8542398 C7.06831058,17.7387807 7.90256443,16.6701331 8.79322755,15.6518524 L8.79322755,21.3692683" id="path220" fill="#4EA97F"></path>
                    <path d="M1.10852909,30.2293461 C1.61422497,28.2489362 2.2863401,26.3346627 3.10845269,24.5032901 L8.79322755,30.2293461 L1.10852909,30.2293461" id="path222" fill="#42A53B"></path>
                    <path d="M60.0476263,14.0305506 L52.7630589,21.3692683 L52.7623275,21.3692683 L52.7623275,12.5107011 L58.4378135,12.5107011 C58.9891068,13.0014743 59.5270519,13.5073723 60.0476263,14.0305506" id="path224" fill="#EE651B"></path>
                    <path d="M1.10852909,47.9485807 C0.384985523,45.1183446 0.000714258431,42.1499403 0,39.0901609 L8.79251443,47.9485807 L1.10852909,47.9485807" id="path226" fill="#65AD41"></path>
                    <path d="M17.5878996,21.3692683 L10.3024728,14.0305506 C10.8224438,13.5073723 11.3602792,13.0014743 11.9116821,12.5107011 L17.5878996,12.5107011 L17.5878996,21.3692683" id="path228" fill="#5BB8E7"></path>
                    <path d="M27.2724668,4.54947146 C29.8131698,3.9615384 32.4573659,3.64994162 35.1743364,3.64994162 L35.1743364,12.5107011 L27.2724668,4.54947146" id="path230" fill="#285D9E"></path>
                    <path d="M8.79322755,30.2293461 L3.10845269,24.5032901 C3.59057371,23.4288947 4.12484358,22.3839751 4.70696535,21.3692683 L8.79322755,21.3692683 L8.79322755,30.2293461" id="path232" fill="#36923B"></path>
                    <path d="M35.1743364,12.5107011 L26.3810723,12.5107011 L26.3810723,4.7675192 C26.6769239,4.68979502 26.9746039,4.61783705 27.2724668,4.54947146 L35.1743364,12.5107011" id="path234" fill="#357AC1"></path>
                    <path d="M8.79322755,39.0901609 L0.892109466,31.1289128 C0.960678276,30.8288116 1.0321032,30.5279735 1.10852909,30.2293461 L8.79322755,30.2293461 L8.79322755,39.0901609" id="path236" fill="#2B8745"></path>
                    <polyline id="path238" fill="#211D1D" points="109.967914 50.4975065 109.967914 45.9530643 103.718095 45.9530643 103.718095 27.7465568 99.2090105 27.7465568 99.2090105 45.9530643 92.9279247 45.9530643 92.9279247 50.4975065 109.967914 50.4975065"></polyline>
                    <path d="M113.029923,32.290999 L127.97646,32.290999 L127.97646,27.7465568 L113.029923,27.7465568 L113.029923,32.290999 Z M113.029923,41.734699 L125.495915,41.734699 L125.495915,37.1917307 L113.029923,37.1917307 L113.029923,41.734699 Z M128.073005,45.9530643 L113.029923,45.9530643 L113.029923,50.4975065 L128.073005,50.4975065 L128.073005,45.9530643 Z" id="path240" fill="#211D1D" fill-rule="nonzero"></path>
                    <polyline id="path242" fill="#211D1D" points="143.472463 50.4975065 154.134821 27.7465568 149.141366 27.7465568 142.698824 41.572766 135.709742 27.7465568 130.652107 27.7465568 142.152467 50.4975065 143.472463 50.4975065"></polyline>
                    <polyline id="path244" fill="#211D1D" points="174.81682 27.7465568 174.81682 41.6698521 168.342095 35.7308329 161.868103 41.6698521 161.868103 27.7465568 157.359018 27.7465568 157.359018 50.4975065 158.90465 50.4975065 168.342095 41.8642086 177.748273 50.4975065 179.326636 50.4975065 179.326636 27.7465568 174.81682 27.7465568"></polyline>
                    <path d="M191.050988,32.290999 L205.998988,32.290999 L205.998988,27.7465568 L191.050988,27.7465568 L191.050988,32.290999 Z M191.050988,41.734699 L203.517712,41.734699 L203.517712,37.1917307 L191.050988,37.1917307 L191.050988,41.734699 Z M206.094071,45.9530643 L191.050988,45.9530643 L191.050988,50.4975065 L206.094071,50.4975065 L206.094071,45.9530643 Z" id="path246" fill="#211D1D" fill-rule="nonzero"></path>
                    <polyline id="path248" fill="#211D1D" points="222.718807 39.1058199 230.738615 27.7465568 225.198255 27.7465568 219.946799 35.1788972 214.697171 27.7465568 209.156811 27.7465568 217.176619 39.1058199 209.156811 50.4975065 214.697171 50.4975065 219.946799 43.0336637 225.198255 50.4975065 230.738615 50.4975065 222.718807 39.1058199"></polyline>
                    <polyline id="path250" fill="#211D1D" points="250.358437 50.4975065 250.358437 45.9530643 244.108619 45.9530643 244.108619 27.7465568 239.599534 27.7465568 239.599534 45.9530643 233.318631 45.9530643 233.318631 50.4975065 250.358437 50.4975065"></polyline>
                    <path d="M253.421177,32.290999 L268.367349,32.290999 L268.367349,27.7465568 L253.421177,27.7465568 L253.421177,32.290999 Z M253.421177,41.734699 L265.887901,41.734699 L265.887901,37.1917307 L253.421177,37.1917307 L253.421177,41.734699 Z M268.46426,45.9530643 L253.421177,45.9530643 L253.421177,50.4975065 L268.46426,50.4975065 L268.46426,45.9530643 Z" id="path252" fill="#211D1D" fill-rule="nonzero"></path>
                    <polyline id="path254" fill="#211D1D" points="289.854071 27.7465568 277.162442 41.0200934 277.162442 27.7465568 272.653357 27.7465568 272.653357 50.4975065 274.070445 50.4975065 286.535341 37.774616 286.535341 50.4975065 291.046254 50.4975065 291.046254 27.7465568 289.854071 27.7465568"></polyline>
                    <path d="M302.419534,37.3860872 C301.678991,37.5802595 300.292987,37.9387597 299.003893,38.8130877 C297.200991,40.014782 296.202629,41.7671225 296.105718,43.9417047 C296.008807,45.7588921 296.588442,47.3492994 297.747712,48.5819434 C299.42262,50.3342839 301.839899,50.8213726 302.999169,50.8213726 C306.284986,50.8213726 308.120802,49.6196783 309.762796,48.54952 L310.50334,48.0637208 L308.151886,44.2009081 L307.347346,44.7211572 C305.897344,45.6616217 304.96298,46.2769305 302.999169,46.2769305 C302.708437,46.2769305 301.58208,46.0503347 301.002445,45.4335522 C300.808624,45.2391956 300.583718,44.8830903 300.614803,44.1360612 C300.645887,42.9666061 301.452257,42.3190581 303.514806,41.7995459 C303.772625,41.734699 303.964618,41.6698521 304.158439,41.6051894 C306.316071,40.8581604 307.990978,39.852849 309.150248,38.5863077 C310.309518,37.2888168 310.922066,35.7632564 310.922066,34.1404255 C310.922066,32.5502024 310.245521,30.8949481 309.119164,29.6284069 C307.797157,28.1372963 305.96317,27.2931811 303.933533,27.2931811 C302.933343,27.2931811 301.58208,27.358028 299.97117,27.8438272 C297.941534,28.4935859 296.136803,29.6284069 294.591719,31.2836611 L297.877536,34.399629 C300.260074,31.8363337 302.933343,31.8363337 303.933533,31.8363337 C305.802262,31.8363337 306.412981,33.5560664 306.412981,34.1404255 C306.412981,35.3732538 305.026977,36.5102854 302.675524,37.3212403 L302.580442,37.3536637 L302.419534,37.3860872" id="path256" fill="#211D1D"></path>
                    <polyline id="path258" fill="#211D1D" points="314.467531 27.7789803 314.467531 50.4975065 318.976616 50.4975065 318.976616 27.7789803 314.467531 27.7789803"></polyline>
                    <path d="M325.871895,39.1382434 C325.871895,35.2113207 329.027889,32.030506 332.926254,32.030506 C336.822791,32.030506 339.980614,35.2113207 339.980614,39.1382434 C339.980614,43.0660872 336.822791,46.244507 332.926254,46.244507 C329.027889,46.244507 325.871895,43.0660872 325.871895,39.1382434 Z M344.617694,39.1382434 C344.617694,32.6472885 339.368066,27.358028 332.926254,27.358028 C326.482615,27.358028 321.232987,32.6472885 321.232987,39.1382434 C321.232987,45.6293825 326.482615,50.918643 332.926254,50.918643 C339.368066,50.918643 344.617694,45.6293825 344.617694,39.1382434 Z" id="path260" fill="#211D1D" fill-rule="nonzero"></path>
                    <polyline id="path262" fill="#211D1D" points="365.689346 27.7465568 352.997716 41.0200934 352.997716 27.7465568 348.486803 27.7465568 348.486803 50.4975065 349.90572 50.4975065 362.370615 37.774616 362.370615 50.4975065 366.8797 50.4975065 366.8797 27.7465568 365.689346 27.7465568"></polyline>
                    <polyline id="path264" fill="#FFFFFF" points="8.79251443 30.2293461 35.173605 56.8086585 61.5555916 30.2293461 52.7615961 30.2293461 35.1743364 47.9485807 17.5857603 30.2293461 8.79251443 30.2293461"></polyline>
                    <path d="M63.1690614,10.439616 L63.6261868,10.439616 C63.7660671,10.4432084 63.8796171,10.4777504 63.9653738,10.5425236 C64.0518619,10.6072784 64.0946489,10.6936427 64.0946489,10.7994242 C64.0946489,10.9419032 64.0560675,11.0426554 63.9803675,11.1038179 C63.9032048,11.1628433 63.76753,11.1937745 63.5733431,11.1937745 L63.1690614,11.1937745 L63.1690614,10.439616 Z M63.1690614,10.061809 L63.1690614,9.06368241 L62.7554543,9.06368241 L62.7554543,11.5715815 L63.5647491,11.5715815 C63.862612,11.5715815 64.0946489,11.5068083 64.2597626,11.3772802 C64.4254248,11.2477522 64.5067931,11.0606541 64.5067931,10.8138121 C64.5067931,10.5727364 64.382455,10.3877937 64.1317675,10.2597026 C64.3703869,10.1611243 64.491068,9.96105682 64.4932622,9.65738168 L64.4932622,9.47746834 C64.4932622,9.30835054 64.5097187,9.18602569 64.5431803,9.11189388 L64.5431803,9.06368241 L64.1175052,9.06368241 C64.0904433,9.13564037 64.0769124,9.26157602 64.0769124,9.44292631 C64.0769124,9.62643202 64.0739868,9.73293202 64.0683185,9.76675558 C64.0368682,9.9560275 63.909056,10.0546059 63.6839674,10.061809 L63.1690614,10.061809 Z M61.8554658,10.2848861 C61.8554658,9.94666892 61.9340914,9.63363518 62.0904283,9.3457849 C62.246948,9.05793461 62.4590542,8.83124676 62.7276611,8.66933212 C62.9968165,8.50598054 63.2868169,8.42322704 63.5989421,8.42322704 C63.9132615,8.42322704 64.2054561,8.50741749 64.4746115,8.67292449 C64.7446812,8.83844992 64.956056,9.06511936 65.1096501,9.34937727 C65.2625128,9.63579061 65.3396756,9.94666892 65.3396756,10.2848861 C65.3396756,10.6216847 65.2625128,10.9311077 65.1096501,11.2153656 C64.956056,11.4996235 64.7446812,11.7241375 64.4746115,11.888226 C64.2054561,12.0515776 63.9132615,12.1343311 63.5989421,12.1343311 C63.2868169,12.1343311 62.9955366,12.053733 62.7261983,11.8918184 C62.4561286,11.7277483 62.2440224,11.5046528 62.0884169,11.2168025 C61.93336,10.9289523 61.8554658,10.6195109 61.8554658,10.2848861 Z M61.5190216,10.2834491 C61.5190216,10.6806917 61.6097152,11.0498586 61.7925654,11.3895127 C61.9754155,11.7313407 62.2282973,11.9997553 62.5519421,12.1954935 C62.8746726,12.3897948 63.2240993,12.48911 63.5989421,12.48911 C63.9739678,12.48911 64.3232116,12.3897948 64.6453936,12.1954935 C64.9683069,11.9997553 65.2197259,11.7313407 65.4025761,11.3895127 C65.5846948,11.0498586 65.6768513,10.6806917 65.6768513,10.2834491 C65.6768513,9.89630202 65.588169,9.53288298 65.41245,9.1946658 C65.236731,8.8564302 64.9875062,8.58296783 64.6645928,8.37788947 C64.3411309,8.17279268 63.9862187,8.07060353 63.5989421,8.07060353 C63.2147739,8.07060353 62.8596789,8.17135573 62.5369484,8.37427867 C62.2133036,8.57937545 61.9633474,8.84924546 61.7854342,9.18746264 C61.6084353,9.52785366 61.5190216,9.89125428 61.5190216,10.2834491 Z" id="path266" fill="#211D1D" fill-rule="nonzero"></path>
                </g>
            </g>
        </g>
    </g>
</svg>