<?xml version="1.0" encoding="UTF-8"?>
<svg width="695px" height="85px" viewBox="0 0 695 85" version="1.1" xmlns="http://www.w3.org/2000/svg" xmlns:xlink="http://www.w3.org/1999/xlink">
    <!-- Generator: Sketch 51 (57462) - http://www.bohemiancoding.com/sketch -->
    <title>partial-logo-white</title>
    <desc>Created with Sketch.</desc>
    <defs></defs>
    <g id="partial-logo-white" stroke="none" stroke-width="1" fill="none" fill-rule="evenodd">
        <g id="logo-f8230c63" fill="#FFFFFF" fill-rule="nonzero">
            <path d="M7.84503834,36.5 C7.84503834,35.9465644 7.82968252,35.2240343 7.79897043,34.3323881 C7.76825833,33.4407418 7.72219089,32.518363 7.6607667,31.5652239 C7.59934252,30.6120848 7.52256344,29.674333 7.43042716,28.7519403 C7.33829089,27.8295476 7.23080018,27.0301526 7.10795181,26.3537313 L0.93485214,26.3537313 L0.93485214,20.358209 L13.1889157,20.358209 L14.1102738,26.8149254 L14.5709529,26.8149254 C16.2294059,24.6626758 18.3331526,22.8640371 20.8822563,21.4189552 C23.43136,19.9738734 26.5485906,19.2513433 30.2340416,19.2513433 C36.8064294,19.2513433 41.751002,21.065355 45.067908,24.6934328 C48.384814,28.3215107 50.0432421,34.2554812 50.0432421,42.4955224 C50.0432421,46.3695716 49.4750769,49.8592382 48.3387295,52.9646269 C47.2023821,56.0700155 45.5900214,58.6987952 43.5015991,60.8510448 C41.4131769,63.0032943 38.8948231,64.6635762 35.9464622,65.8319403 C32.9981014,67.0003043 29.7426684,67.5844776 26.1800657,67.5844776 C24.8901578,67.5844776 23.7384717,67.5383587 22.7249726,67.4461194 C21.7114736,67.3538801 20.7901246,67.2308963 19.9608981,67.0771642 C19.1316716,66.9234321 18.3178134,66.7235833 17.519299,66.4776119 C16.7207846,66.2316406 15.8608589,65.9241809 14.9394962,65.5552239 L14.9394962,84.9253731 L7.84503834,84.9253731 L7.84503834,36.5 Z M29.036276,25.9847761 C27.1935505,25.9847761 25.4583433,26.3229817 23.8306024,26.999403 C22.2028615,27.6758243 20.7594148,28.5674572 19.5002191,29.6743284 C18.2410233,30.7811996 17.2121836,32.011038 16.4136692,33.3638806 C15.6151548,34.7167232 15.1237687,36.0695455 14.9394962,37.4223881 L14.9394962,58.4528358 C16.2908282,59.3752285 17.811054,60.0977586 19.5002191,60.6204478 C21.1893841,61.1431369 23.4159774,61.4044776 26.1800657,61.4044776 C31.0940005,61.4044776 35.0250893,59.7903146 37.9734502,56.5619403 C40.921811,53.3335659 42.3959693,48.6140609 42.3959693,42.4032836 C42.3959693,37.1763918 41.3671297,33.1332979 39.3094195,30.2738806 C37.2517093,27.4144633 33.8273624,25.9847761 29.036276,25.9847761 Z M64.2321577,23.9555224 C66.8733977,22.4182013 69.8524259,21.3113467 73.1693319,20.6349254 C76.4862378,19.9585041 79.7416708,19.6202985 82.9357284,19.6202985 C86.0683618,19.6202985 88.632783,20.1122339 90.629069,21.0961194 C92.625355,22.0800049 94.1916482,23.3559623 95.3279956,24.9240299 C96.464343,26.4920974 97.2321338,28.2753631 97.631391,30.2738806 C98.0306482,32.2723981 98.2302738,34.2862585 98.2302738,36.3155224 C98.2302738,38.6522505 98.1688506,41.1426733 98.0460022,43.7868657 C97.9231538,46.431058 97.8310189,49.0752107 97.7695947,51.719403 C97.7695947,54.7940452 97.9538645,57.7149115 98.3224096,60.4820896 L104.495509,60.4820896 L104.495509,66.4776119 L92.2414458,66.4776119 L91.4122234,59.5597015 L90.9515444,59.5597015 C90.5829993,60.1131371 90.0301899,60.8202942 89.2930997,61.681194 C88.5560095,62.5420939 87.5885931,63.3876078 86.3908215,64.2177612 C85.1930499,65.0479146 83.7342474,65.7704447 82.0143702,66.3853731 C80.294493,67.0003016 78.2675254,67.3077612 75.9334064,67.3077612 C71.3880167,67.3077612 67.7947558,66.1394147 65.1535159,63.8026866 C62.512276,61.4659585 61.1916758,58.2683785 61.1916758,54.2098507 C61.1916758,51.0737157 61.8826875,48.460309 63.2647317,46.3695522 C64.6467758,44.2787955 66.627676,42.6800055 69.2074918,41.5731343 C71.7873075,40.4662631 74.9045381,39.8205979 78.5592771,39.6361194 C82.2140161,39.4516409 86.3140189,39.6976086 90.8594085,40.3740299 C91.1665295,37.545359 91.2125969,35.193293 90.9976123,33.3177612 C90.7826276,31.4422294 90.2912415,29.9510503 89.5234392,28.8441791 C88.7556369,27.7373079 87.6807298,26.9532859 86.2986857,26.4920896 C84.9166415,26.0308932 83.212146,25.8002985 81.1851479,25.8002985 C78.4210596,25.8002985 75.7798593,26.184623 73.2614677,26.9532836 C70.7430761,27.7219441 68.501127,28.5059662 66.5355531,29.3053731 L64.2321577,23.9555224 Z M77.7761227,61.1277612 C79.4959998,61.1277612 81.0930047,60.8510475 82.5671851,60.2976119 C84.0413655,59.7441763 85.3312541,59.0370192 86.4368894,58.1761194 C87.5425247,57.3152196 88.4638736,56.3774678 89.2009639,55.3628358 C89.9380541,54.3482039 90.4908634,53.3797061 90.8594085,52.4573134 L90.8594085,46.000597 C87.665351,45.4471614 84.7170343,45.1704478 82.0143702,45.1704478 C79.3117061,45.1704478 76.9776221,45.4625344 75.0120482,46.0467164 C73.0464743,46.6308984 71.5108927,47.5379043 70.4052574,48.7677612 C69.2996221,49.9976181 68.7468127,51.5964081 68.7468127,53.5641791 C68.7468127,55.593443 69.4378244,57.3613358 70.8198686,58.8679104 C72.2019127,60.3744851 74.5206409,61.1277612 77.7761227,61.1277612 Z M115.643943,66.4776119 L115.643943,60.2976119 L128.082278,60.2976119 L128.082278,26.538209 L115.643943,26.538209 L115.643943,20.358209 L132.873341,20.358209 L134.347514,26.3537313 L134.808193,26.3537313 C136.896615,24.4474532 139.230699,22.8179172 141.810515,21.4650746 C144.390331,20.112232 147.461494,19.4358209 151.024096,19.4358209 C153.112519,19.4358209 154.786303,19.8355184 156.045498,20.6349254 C157.304694,21.4343324 158.287466,22.6026789 158.993844,24.14 C159.700223,25.6773211 160.176253,27.5374518 160.42195,29.7204478 C160.667646,31.9034438 160.790493,34.3784936 160.790493,37.1456716 L154.340986,37.2379104 C154.340986,33.3023684 153.95709,30.412248 153.189288,28.5674627 C152.421486,26.7226773 151.024107,25.8002985 148.997108,25.8002985 C147.092959,25.8002985 145.373107,26.0770122 143.837503,26.6304478 C142.301898,27.1838834 140.965942,27.8602945 139.829595,28.6597015 C138.693247,29.4591085 137.725831,30.2585035 136.927317,31.0579104 C136.128802,31.8573174 135.545281,32.5337286 135.176736,33.0871642 L135.176736,60.2976119 L152.866813,60.2976119 L152.866813,66.4776119 L115.643943,66.4776119 Z M167.700679,20.358209 L178.664841,20.358209 L178.664841,11.2265672 L185.851435,9.1973134 L185.851435,20.358209 L210.451698,20.358209 L210.451698,26.538209 L185.851435,26.538209 L185.851435,48.3065672 C185.851435,52.7955448 186.941698,56.1161086 189.122256,58.2683582 C191.302815,60.4206078 194.420045,61.4967164 198.474042,61.4967164 C201.23813,61.4967164 203.648993,60.9740351 205.706703,59.9286567 C207.764413,58.8832784 209.622467,57.7456778 211.28092,56.5158209 L213.676451,61.9579104 C211.526605,63.6797101 208.962184,65.0632784 205.983111,66.1086567 C203.004038,67.1540351 199.94823,67.6767164 196.815597,67.6767164 C194.35863,67.6767164 192.039901,67.3231379 189.859343,66.6159701 C187.678784,65.9088024 185.759307,64.8173208 184.100854,63.3414925 C182.442401,61.8656643 181.121801,59.9747876 180.139014,57.668806 C179.156227,55.3628243 178.664841,52.6110608 178.664841,49.4134328 L178.664841,26.538209 L167.700679,26.538209 L167.700679,20.358209 Z M229.800219,66.4776119 L229.800219,60.2976119 L245.831851,60.2976119 L245.831851,26.538209 L229.800219,26.538209 L229.800219,20.358209 L253.202716,20.358209 L253.202716,60.2976119 L268.865805,60.2976119 L268.865805,66.4776119 L229.800219,66.4776119 Z M243.344184,7.2602985 C243.344184,5.5999917 243.896993,4.1703045 245.002629,2.971194 C246.108264,1.7720836 247.520999,1.1725373 249.240876,1.1725373 C251.022178,1.1725373 252.511692,1.7720836 253.709463,2.971194 C254.907235,4.1703045 255.506112,5.5999917 255.506112,7.2602985 C255.506112,8.8591125 254.907235,10.2119348 253.709463,11.318806 C252.511692,12.4256772 251.022178,12.9791045 249.240876,12.9791045 C247.520999,12.9791045 246.108264,12.4256772 245.002629,11.318806 C243.896993,10.2119348 243.344184,8.8591125 243.344184,7.2602985 Z M285.358116,23.9555224 C287.999356,22.4182013 290.978384,21.3113467 294.29529,20.6349254 C297.612196,19.9585041 300.867629,19.6202985 304.061687,19.6202985 C307.19432,19.6202985 309.758741,20.1122339 311.755027,21.0961194 C313.751313,22.0800049 315.317607,23.3559623 316.453954,24.9240299 C317.590301,26.4920974 318.358092,28.2753631 318.757349,30.2738806 C319.156607,32.2723981 319.356232,34.2862585 319.356232,36.3155224 C319.356232,38.6522505 319.294809,41.1426733 319.171961,43.7868657 C319.049112,46.431058 318.956977,49.0752107 318.895553,51.719403 C318.895553,54.7940452 319.079823,57.7149115 319.448368,60.4820896 L325.621468,60.4820896 L325.621468,66.4776119 L313.367404,66.4776119 L312.538182,59.5597015 L312.077503,59.5597015 C311.708958,60.1131371 311.156148,60.8202942 310.419058,61.681194 C309.681968,62.5420939 308.714551,63.3876078 307.51678,64.2177612 C306.319008,65.0479146 304.860206,65.7704447 303.140329,66.3853731 C301.420451,67.0003016 299.393484,67.3077612 297.059365,67.3077612 C292.513975,67.3077612 288.920714,66.1394147 286.279474,63.8026866 C283.638234,61.4659585 282.317634,58.2683785 282.317634,54.2098507 C282.317634,51.0737157 283.008646,48.460309 284.39069,46.3695522 C285.772734,44.2787955 287.753634,42.6800055 290.33345,41.5731343 C292.913266,40.4662631 296.030497,39.8205979 299.685235,39.6361194 C303.339974,39.4516409 307.439977,39.6976086 311.985367,40.3740299 C312.292488,37.545359 312.338555,35.193293 312.123571,33.3177612 C311.908586,31.4422294 311.4172,29.9510503 310.649398,28.8441791 C309.881595,27.7373079 308.806688,26.9532859 307.424644,26.4920896 C306.0426,26.0308932 304.338104,25.8002985 302.311106,25.8002985 C299.547018,25.8002985 296.905818,26.184623 294.387426,26.9532836 C291.869035,27.7219441 289.627085,28.5059662 287.661512,29.3053731 L285.358116,23.9555224 Z M298.902081,61.1277612 C300.621958,61.1277612 302.218963,60.8510475 303.693143,60.2976119 C305.167324,59.7441763 306.457212,59.0370192 307.562848,58.1761194 C308.668483,57.3152196 309.589832,56.3774678 310.326922,55.3628358 C311.064012,54.3482039 311.616822,53.3797061 311.985367,52.4573134 L311.985367,46.000597 C308.791309,45.4471614 305.842993,45.1704478 303.140329,45.1704478 C300.437664,45.1704478 298.10358,45.4625344 296.138007,46.0467164 C294.172433,46.6308984 292.636851,47.5379043 291.531216,48.7677612 C290.42558,49.9976181 289.872771,51.5964081 289.872771,53.5641791 C289.872771,55.593443 290.563783,57.3613358 291.945827,58.8679104 C293.327871,60.3744851 295.646599,61.1277612 298.902081,61.1277612 Z M341.6531,1.9104478 L356.947645,1.9104478 L356.947645,50.9814925 C356.947645,54.7325561 357.577234,57.3767087 358.836429,58.9140299 C360.095625,60.451351 361.953679,61.22 364.410646,61.22 C366.130523,61.22 367.773596,60.9125404 369.339912,60.2976119 C370.906229,59.6826835 372.641436,58.6373208 374.545586,57.1614925 L377.862475,62.2346269 C376.879688,63.0955267 375.804781,63.8641757 374.637722,64.540597 C373.470662,65.2170183 372.272909,65.7858186 371.044425,66.2470149 C369.815941,66.7082113 368.587476,67.0617898 367.358992,67.3077612 C366.130509,67.5537326 364.994178,67.6767164 363.949967,67.6767164 C361.677272,67.6767164 359.650305,67.3846298 357.869003,66.8004478 C356.087702,66.2162657 354.598188,65.2785139 353.400416,63.9871642 C352.202645,62.6958144 351.296651,60.9894136 350.68241,58.8679104 C350.068168,56.7464073 349.761051,54.1176276 349.761051,50.9814925 L349.761051,8.0904478 L341.6531,8.0904478 L341.6531,1.9104478 Z" id="partial"></path>
            <path d="M523.375641,8.920597 C522.33143,8.4901471 521.179743,8.1673145 519.920548,7.9520896 C518.661352,7.7368646 517.141126,7.6292537 515.359825,7.6292537 C512.841433,7.6292537 510.369147,8.0904431 507.942892,9.0128358 C505.516636,9.9352285 503.366822,11.4417806 501.493384,13.5325373 C499.619947,15.623294 498.115077,18.3596846 496.978729,21.741791 C495.842382,25.1238975 495.274217,29.2746023 495.274217,34.1940299 C495.274217,38.6215147 495.780959,42.4955058 496.794458,45.8161194 C497.807957,49.136733 499.220692,51.9038695 501.032705,54.1176119 C502.844719,56.3313544 505.025245,57.9916363 507.574348,59.0985075 C510.123452,60.2053787 512.964278,60.758806 516.096911,60.758806 C517.69394,60.758806 519.183454,60.6204491 520.565498,60.3437313 C521.947543,60.0670135 523.222075,59.682689 524.389135,59.1907463 L524.389135,49.9668657 L531.207185,49.9668657 L531.207185,62.4191045 L531.299321,62.6035821 C529.456595,64.0179175 527.122511,65.201637 524.296999,66.1547761 C521.471486,67.1079152 518.031784,67.5844776 513.977788,67.5844776 C510.108064,67.5844776 506.530159,66.9234394 503.243965,65.6013433 C499.957771,64.2792471 497.116945,62.2653867 494.721402,59.5597015 C492.325859,56.8540163 490.467805,53.3950957 489.147185,49.1828358 C487.826565,44.970576 487.166265,39.9743573 487.166265,34.1940299 C487.166265,28.1677311 487.903344,23.0485285 489.377525,18.8362687 C490.851705,14.6240088 492.847961,11.1804611 495.366353,8.5055224 C497.884744,5.8305836 500.817705,3.8782151 504.165323,2.6483582 C507.512941,1.4185013 511.090846,0.8035821 514.899146,0.8035821 C516.987568,0.8035821 518.799554,0.880447 520.335159,1.0341791 C521.870763,1.1879112 523.222075,1.4031329 524.389135,1.6798507 C525.556194,1.9565685 526.585034,2.3101471 527.475685,2.740597 C528.366335,3.1710469 529.241617,3.6629823 530.101555,4.2164179 L530.193691,4.2164179 L530.193691,18.7901493 L523.375641,18.7901493 L523.375641,8.920597 Z M541.710668,43.4179104 C541.710668,35.9772762 543.645501,30.0894247 547.515225,25.7541791 C551.384948,21.4189335 556.913042,19.2513433 564.099671,19.2513433 C567.969395,19.2513433 571.301607,19.8816355 574.096407,21.1422388 C576.891208,22.4028421 579.209936,24.109243 581.052662,26.2614925 C582.895387,28.4137421 584.262055,30.9656569 585.152705,33.9173134 C586.043356,36.86897 586.488675,40.035804 586.488675,43.4179104 C586.488675,47.1074811 585.997289,50.4434179 585.014502,53.4258209 C584.031715,56.4082239 582.588268,58.9447657 580.684118,61.0355224 C578.779969,63.1262791 576.430529,64.7404421 573.635728,65.8780597 C570.840928,67.0156773 567.662274,67.5844776 564.099671,67.5844776 C560.291372,67.5844776 556.974516,66.9541854 554.149003,65.6935821 C551.323491,64.4329788 548.989407,62.7265779 547.146681,60.5743284 C545.303956,58.4220788 543.937288,55.870164 543.046637,52.9185075 C542.155987,49.9668509 541.710668,46.8000169 541.710668,43.4179104 Z M549.357941,43.4179104 C549.357941,45.57016 549.61899,47.7223773 550.141095,49.8746269 C550.663201,52.0268764 551.507771,53.963872 552.67483,55.6856716 C553.84189,57.4074713 555.362115,58.7910395 557.235553,59.8364179 C559.108991,60.8817963 561.397007,61.4044776 564.099671,61.4044776 C569.013606,61.4044776 572.714358,59.8825525 575.202037,56.8386567 C577.689717,53.7947609 578.933538,49.3212235 578.933538,43.4179104 C578.933538,41.204168 578.672489,39.0365778 578.150383,36.9150746 C577.628278,34.7935715 576.768352,32.8719489 575.570581,31.1501493 C574.372809,29.4283496 572.837227,28.0447813 570.96379,26.999403 C569.090352,25.9540246 566.802336,25.4313433 564.099671,25.4313433 C559.185737,25.4313433 555.500341,26.9378954 553.043373,29.9510448 C550.586406,32.9641942 549.357941,37.4531045 549.357941,43.4179104 Z M600.309047,36.5 C600.309047,35.9465644 600.293691,35.2240343 600.262979,34.3323881 C600.232267,33.4407418 600.1862,32.518363 600.124775,31.5652239 C600.063351,30.6120848 599.986572,29.674333 599.894436,28.7519403 C599.8023,27.8295476 599.694809,27.0301526 599.571961,26.3537313 L593.398861,26.3537313 L593.398861,20.358209 L605.74506,20.358209 L606.574283,27.8295522 L607.034962,27.8295522 C607.649204,26.7841739 608.463062,25.7541842 609.476561,24.7395522 C610.49006,23.7249203 611.672458,22.8025415 613.02379,21.9723881 C614.375122,21.1422347 615.879992,20.4811965 617.538445,19.9892537 C619.196898,19.497311 620.947461,19.2513433 622.790186,19.2513433 C625.615699,19.2513433 628.118697,19.5588029 630.299255,20.1737313 C632.479814,20.7886598 634.2918,21.8801414 635.735268,23.448209 C637.178737,25.0162765 638.269,27.1377478 639.00609,29.8126866 C639.74318,32.4876253 640.11172,35.885054 640.11172,40.0050746 L640.11172,66.4776119 L632.925126,66.4776119 L632.925126,41.3886567 C632.925126,36.2847506 632.095912,32.4415055 630.437459,29.858806 C628.779006,27.2761065 625.769266,25.9847761 621.408149,25.9847761 C619.81112,25.9847761 618.260183,26.3076087 616.75529,26.9532836 C615.250398,27.5989585 613.88373,28.4444724 612.655246,29.4898507 C611.426763,30.5352291 610.351856,31.7496946 609.430493,33.1332836 C608.50913,34.5168726 607.833474,35.9773057 607.403505,37.5146269 L607.403505,66.4776119 L600.309047,66.4776119 L600.309047,36.5 Z M655.129858,66.4776119 L655.129858,60.2976119 L666.09402,60.2976119 L666.09402,26.538209 L655.129858,26.538209 L655.129858,20.358209 L666.09402,20.358209 L666.09402,17.7755224 C666.09402,11.995195 667.59889,7.8137443 670.608675,5.2310448 C673.61846,2.6483453 677.918088,1.3570149 683.507689,1.3570149 C685.534687,1.3570149 687.346673,1.4799988 688.943702,1.7259701 C690.540731,1.9719415 692.260582,2.4638769 694.103308,3.201791 L692.444863,9.1973134 C690.847834,8.5208921 689.312253,8.0750757 687.838072,7.8598507 C686.363892,7.6446258 685.01258,7.5370149 683.784096,7.5370149 C679.7301,7.5370149 676.966053,8.5362587 675.491873,10.5347761 C674.017693,12.5332936 673.280613,15.8077384 673.280613,20.358209 L692.352727,20.358209 L692.352727,26.538209 L673.280613,26.538209 L673.280613,60.2976119 L692.352727,60.2976119 L692.352727,66.4776119 L655.129858,66.4776119 Z" id="Conf"></path>
            <ellipse id="Oval" fill-opacity="0.499773551" cx="415.146769" cy="15.7462687" rx="7.67798467" ry="7.68656716"></ellipse>
            <ellipse id="Oval-Copy" fill-opacity="0.499773551" cx="446.626506" cy="15.7462687" rx="7.67798467" ry="7.68656716"></ellipse>
            <ellipse id="Oval" fill-opacity="0.499773551" cx="415.146769" cy="61.8656716" rx="7.67798467" ry="7.68656716"></ellipse>
            <ellipse id="Oval-Copy" fill-opacity="0.499773551" cx="446.626506" cy="61.8656716" rx="7.67798467" ry="7.68656716"></ellipse>
        </g>
    </g>
</svg>