<?xml version="1.0" encoding="UTF-8"?>
<!-- Generator: Adobe Illustrator 16.0.0, SVG Export Plug-In . SVG Version: 6.00 Build 0)  -->
<!DOCTYPE svg PUBLIC "-//W3C//DTD SVG 1.1//EN" "http://www.w3.org/Graphics/SVG/1.1/DTD/svg11.dtd">
<svg version="1.1" id="Layer_1" xmlns="http://www.w3.org/2000/svg" xmlns:xlink="http://www.w3.org/1999/xlink" x="0px" y="0px" width="549.924px" height="308.187px" viewBox="109.899 226.5 183.308 102.729" enable-background="new 109.899 226.5 183.308 102.729" xml:space="preserve"><link xmlns="" type="text/css" id="dark-mode" rel="stylesheet" href=""/><style xmlns="" type="text/css" id="dark-mode-custom-style"/>
<g>
	<g>
		<g>
			<path d="M146.711,295.763h2.159v4.75h4.21v-4.75h2.267v11.767h-2.267v-4.858h-4.103v4.966h-2.159v-11.875H146.711z"/>
			<path d="M161.717,295.763h1.728l4.966,11.767h-2.483l-1.295-3.022h-4.21l-1.295,3.022h-2.483L161.717,295.763z M163.984,302.672     l-1.403-3.67v-0.432v0.432l-1.403,3.67H163.984z"/>
			<path d="M178.343,305.479h0.971v4.426h-2.159v-2.375h-7.557v-11.767h2.159v9.608h4.21v-9.608h2.267v9.716H178.343z"/>
			<path d="M181.042,307.53v-11.767h2.159v8.529l0.108-0.432l4.642-8.205h2.159v11.767h-2.159v-8.528l-0.108,0.324l-4.642,8.205     h-2.159V307.53z"/>
			<path d="M203.82,301.701c0,3.347-2.807,6.154-6.262,6.154s-6.261-2.699-6.261-6.154c0-3.239,2.807-6.153,6.045-6.153     C201.013,295.547,203.82,298.246,203.82,301.701z M193.672,301.701c0,2.267,1.835,4.103,3.994,4.103s3.995-1.835,3.995-3.995     s-1.835-3.994-3.887-3.994C195.399,297.707,193.672,299.434,193.672,301.701z"/>
			<path d="M205.547,295.763h2.159v4.75h4.21v-4.75h2.267v11.767h-2.267v-4.858h-4.21v4.966h-2.159V295.763z"/>
			<path d="M220.553,295.763h1.727l4.966,11.767h-2.483l-1.296-3.022h-4.21l-1.295,3.022h-2.483L220.553,295.763z M222.82,302.672     l-1.403-3.67v-0.432v0.432l-1.404,3.67H222.82z"/>
			<path d="M232.644,298.894v0.432l-2.699,8.312h-2.483l4.426-11.767h1.727l4.534,11.767h-2.591l-2.807-8.312L232.644,298.894z"/>
			<path d="M239.337,295.763h6.37v2.159h-4.21v2.699h3.994v2.159h-3.994v2.699h4.21v2.159h-6.37V295.763z"/>
			<path d="M247.758,295.763h2.159v4.75h4.21v-4.75h2.267v11.767h-2.267v-4.858h-4.21v4.966h-2.159V295.763z"/>
		</g>
		<g>
			<path d="M111.95,329.229v2.483h-2.051v-4.534h1.295l3.778-9.608h1.727l3.779,9.608h1.295v4.534h-2.051v-2.483H111.95z      M118.211,327.07l-2.375-6.585l-2.375,6.585H118.211z"/>
			<path d="M123.177,317.462h2.159c0.432,0,0.756,0,1.188,0c0.647,0,0.864,0.108,1.403,0.216c1.295,0.432,2.159,1.511,2.159,2.915     c0,0.756-0.216,1.404-0.756,1.835c-0.216,0.216-0.324,0.216-0.755,0.432c1.403,0.324,2.159,1.296,2.159,2.807     c0,1.08-0.54,2.159-1.404,2.807c-0.755,0.54-1.835,0.756-3.347,0.756h-3.022v-11.767H123.177z M125.876,321.997     c0.864,0,1.188,0,1.512-0.216c0.432-0.216,0.647-0.647,0.647-1.079c0-0.648-0.54-1.08-1.295-1.188c-0.324,0-0.647,0-0.972,0     h-0.432v2.375h0.54V321.997z M126.308,327.07c1.619,0,2.375-0.54,2.375-1.511c0-0.432-0.108-0.756-0.54-1.08     c-0.432-0.324-0.755-0.432-1.835-0.432h-0.972v3.022H126.308z"/>
			<path d="M144.444,323.4c0,3.347-2.807,6.153-6.261,6.153s-6.261-2.699-6.261-6.153c0-3.347,2.807-6.153,6.045-6.153     C141.638,317.247,144.444,319.945,144.444,323.4z M134.189,323.292c0,2.267,1.835,4.102,3.994,4.102s3.994-1.835,3.994-3.994     s-1.835-3.995-3.886-3.995C135.916,319.405,134.189,321.133,134.189,323.292z"/>
			<path d="M146.172,329.229v-11.767h2.807c0.54,0,0.864,0,1.295,0c0.54,0,0.756,0.108,1.188,0.216     c1.404,0.54,2.375,1.835,2.375,3.347c0,1.295-0.647,2.591-1.835,3.239c-0.648,0.432-1.295,0.432-3.239,0.432h-0.432v4.426h-2.159     V329.229z M148.763,322.644h0.216h0.216c0.648,0,0.972,0,1.296-0.108c0.647-0.216,1.079-0.756,1.079-1.403     c0-0.648-0.432-1.188-1.188-1.403c-0.324-0.108-0.647-0.108-1.188-0.108h-0.216h-0.216h-0.432v3.022H148.763z"/>
			<path d="M155.132,317.462h6.369v2.159h-4.21v2.699h3.995v2.159h-3.995v2.699h4.21v2.159h-6.369V317.462z"/>
			<path d="M172.297,327.07h0.972v4.426h-2.159v-2.375h-7.557v-11.767h2.159v9.608h4.21v-9.608h2.267v9.716H172.297z"/>
			<path d="M179.53,317.462h2.159v4.75h4.21v-4.75h2.267v11.767h-2.267v-4.966h-4.21v4.966h-2.159V317.462z"/>
			<path d="M194.428,317.462h1.728l4.966,11.767h-2.483l-1.295-3.023h-4.103l-1.295,3.023h-2.483L194.428,317.462z M196.695,324.264     l-1.403-3.671v-0.432v0.432l-1.403,3.671H196.695z"/>
			<path d="M206.951,317.462h2.159v5.074l3.67-5.074h2.699l-4.318,5.29l4.318,6.478h-2.699l-3.67-5.83v5.83h-2.159V317.462z"/>
			<path d="M219.689,325.343l-3.778-7.881h2.483l2.483,5.722l2.699-5.722h2.483l-5.83,11.767h-2.483L219.689,325.343z"/>
			<path d="M231.133,320.485v0.432l-2.699,8.312h-2.483l4.426-11.767h1.728l4.534,11.767h-2.591l-2.807-8.312L231.133,320.485z"/>
			<path d="M239.014,319.622h-2.159v-2.159h6.585v2.159h-2.267v9.608h-2.159V319.622z"/>
			<path d="M247.434,325.343l-3.778-7.881h2.483l2.483,5.722l2.699-5.722h2.483l-5.83,11.767h-2.483L247.434,325.343z"/>
			<path d="M254.667,329.229v-11.767h2.807c0.54,0,0.863,0,1.295,0c0.54,0,0.755,0.108,1.188,0.216     c1.403,0.54,2.375,1.835,2.375,3.347c0,1.295-0.648,2.591-1.835,3.239c-0.647,0.432-1.295,0.432-3.239,0.432h-0.324v4.426h-2.267     V329.229z M257.258,322.644h0.216h0.216c0.647,0,0.972,0,1.295-0.108c0.647-0.216,1.08-0.756,1.08-1.403     c0-0.648-0.432-1.188-1.188-1.403c-0.324-0.108-0.648-0.108-1.188-0.108h-0.216h-0.216h-0.324v3.022H257.258z"/>
			<path d="M267.729,317.462h1.728l4.966,11.767h-2.375l-1.295-3.023h-4.21l-1.295,3.023h-2.483L267.729,317.462z M269.997,324.264     l-1.403-3.671v-0.432v0.432l-1.403,3.671H269.997z"/>
			<path d="M276.906,319.622h-2.159v-2.159h6.585v2.159h-2.267v9.608h-2.159V319.622z"/>
			<path d="M286.514,317.462h1.727l4.966,11.767h-2.483l-1.295-3.023h-4.21l-1.296,3.023h-2.483L286.514,317.462z M288.781,324.264     l-1.404-3.671v-0.432v0.432l-1.403,3.671H288.781z"/>
		</g>
	</g>
	<g>
		<polygon points="160.206,246.644 152.757,246.644 152.757,244.161 160.206,244.161   "/>
		<polygon points="250.349,246.644 242.9,246.644 243.008,244.161 250.349,244.161   "/>
		<g>
			<polygon points="190.002,235.74 188.274,235.74 188.274,234.769 182.445,234.769 178.019,239.194 168.303,239.194 172.405,235.2      179.638,235.2 181.149,233.473 190.002,233.473    "/>
			<polygon points="223.468,235.2 230.809,235.2 234.803,239.194 225.195,239.194 220.661,234.769 214.939,234.769 214.939,235.74      213.104,235.74 213.104,233.473 221.957,233.473    "/>
			<rect x="182.229" y="236.064" width="2.267" height="1.08"/>
			<rect x="218.61" y="236.064" width="2.267" height="1.08"/>
			<path d="M217.099,235.956h-31.091l-3.67,3.562v1.511h38.432v-1.511L217.099,235.956z M186.439,238.871l0.755-1.188h28.716     c0.216,0.324,0.432,0.756,0.756,1.08L186.439,238.871z"/>
			<path d="M184.28,242.541h34.545v-0.863h5.83v0.863c1.188,0.108,2.483,0,3.671,0v2.699H174.78v-2.699h3.671l0.108-0.972h5.83     v0.972H184.28z"/>
			<path d="M201.877,248.911c-0.108,0.54,0.324,1.403-0.432,1.619c-0.755,0.54-1.079-0.54-1.619-0.864     c0.324-0.647,1.188-1.079,1.943-0.971L201.877,248.911z"/>
			<path d="M204.252,249.558c-0.324,0.324-0.756,0.864-1.188,1.08c-0.216-0.108-0.648-0.108-0.756-0.54     c0.108-0.54-0.216-1.295,0.324-1.511C203.172,248.695,203.82,249.019,204.252,249.558z"/>
			<path d="M200.689,250.854c0.108,0.324-0.108,0.54-0.216,0.864c-0.432,0.216-1.08,0.108-1.62,0.108     c-0.216-0.647,0.108-1.295,0.432-1.835C199.826,249.666,200.257,250.638,200.689,250.854z"/>
			<path d="M205.332,251.609v0.216c-0.648-0.108-1.943,0.432-1.943-0.647c0.108-0.54,0.756-0.864,1.08-1.295     C205.116,250.098,205.332,250.962,205.332,251.609z"/>
			<path d="M200.689,252.689c0,0.648-0.648,0.972-1.08,1.403c-0.648-0.324-0.864-1.188-0.864-1.943c0.432-0.108,1.08-0.108,1.619,0     L200.689,252.689z"/>
			<path d="M205.332,252.581c-0.108,0.54-0.216,1.188-0.864,1.511c-0.432-0.324-0.972-0.755-1.188-1.295     c0.108-0.216,0.108-0.54,0.432-0.756C204.36,252.257,205.547,251.717,205.332,252.581z"/>
			<path d="M201.877,253.876c-0.108,0.54,0.216,1.295-0.324,1.511c-0.648-0.108-1.296-0.324-1.728-0.972     c0.432-0.432,0.972-1.511,1.835-0.863L201.877,253.876z"/>
			<path d="M204.252,254.309c-0.324,0.647-1.188,0.971-1.835,0.971c-0.324-0.432-0.108-1.08-0.108-1.619     C202.957,252.689,203.712,253.876,204.252,254.309z"/>
			<path d="M221.849,276.007v-2.051h34.654v-19.324c-0.432,0-0.864,0.108-1.295,0v-7.341h-1.188v1.943c0.108,0,0.216-0.108,0.216,0     v9.5c-0.216,0-0.432,0-0.54-0.108v-11.443h-1.511v1.943h0.108c0.108-0.108,0.216,0.108,0.216,0.216l-0.108,13.387     c-0.216,0-0.432,0.108-0.54,0v-15.438h-1.403v1.943h0.216v13.603h-0.756v-15.438h-1.619v1.943h0.324v16.625     c-0.216,0-0.54,0-0.756-0.108v-18.676h-1.511v1.943h0.324v16.841l-1.188-0.108v-18.676h-1.511v1.943c0.108,0,0.324-0.108,0.432,0     l-0.108,19.54l-0.863-0.108v-19.54l-0.972-0.108v-10.148h-7.125v2.051l5.397,0.108l-0.108,27.637c-0.216,0-0.54,0-0.756-0.108     l0.108-24.938h0.324v-1.727h-4.966l-0.108,26.665h-3.995l-0.108-0.107v-22.347h-1.403v2.159c0.108,0,0.216,0,0.324,0.108     l-0.108,17.705c-0.216,0-0.432,0-0.648-0.108v-19.864c-0.432,0-0.971-0.108-1.403,0v2.159c0.108,0,0.324,0,0.432,0.108     l-0.108,17.705l-0.755-0.108v-19.864c-0.432,0-0.972-0.108-1.403,0v2.159c0.108,0,0.324,0,0.324,0.108v17.705     c-0.432,0-0.864,0-1.188-0.108v-19.864h-1.728v2.159c0.108,0,0.324,0,0.432,0.108v17.705l-0.864-0.108v-19.864h-1.728v2.159     c0.108,0,0.324,0,0.432,0.108v17.705l-0.756-0.108v-19.864h-1.619v2.159c0.108,0,0.324,0,0.432,0.108l-0.108,17.705l-0.972-0.108     l-0.108-19.864h-1.619v2.159c0.108,0,0.324,0,0.324,0.108l-0.108,17.705l-1.728-0.108v-17.597c-0.108,0-0.324,0-0.324,0v-2.267     H188.49l-0.108,2.267h-0.54l-0.108,17.705l-1.728-0.108v-17.705h0.216v-2.159h-1.511v19.972l-0.972-0.108v-17.705h0.216v-2.159     h-1.511v19.972l-0.756-0.108l0.108-17.705h0.216v-2.159h-1.62v19.972l-0.972-0.108l0.108-17.705h0.216v-2.159h-1.62v19.972     c-0.432,0-0.863,0-1.188-0.108l0.108-17.705h0.108v-2.159c-0.432,0-0.864-0.108-1.296,0l-0.108,19.972l-0.755-0.108v-17.705     h0.108v-2.159c-0.432,0-0.864-0.108-1.295,0v19.972c-0.216,0-0.432,0-0.648-0.108v-17.705h0.108v-2.159     c-0.432,0-0.972-0.108-1.295,0.108v22.347l-3.994-0.107v-26.665h-4.966v1.727c0.108,0,0.216,0,0.324,0v24.938     c-0.216,0-0.54,0-0.756-0.108v-27.637h5.29v-2.159h-7.125v10.147l-0.971,0.108v19.54l-0.972-0.108v-19.432h0.432v-1.943h-1.619     v18.676l-1.188-0.108v-16.733l0.432-0.108v-1.835h-1.619v18.676c-0.216,0-0.54,0-0.756-0.108v-16.733l0.432-0.108v-1.835h-1.619     l-0.108,15.545h-0.756v-13.603h0.324v-1.943h-1.404l-0.108,15.545h-0.54v-13.603h0.324v-1.943h-1.403v11.552     c-0.216,0-0.324,0.108-0.54,0v-9.5h0.216v-1.943h-1.188l-0.108,7.341h-1.188v19.324h34.546v2.051h-34.87v8.745h110.223v-8.745     h-34.87V276.007z M225.195,270.609h23.642v1.728h-23.642V270.609z M178.019,272.337h-23.642v-1.728h23.642V272.337z      M225.627,278.274h11.875l-0.971,1.295h-10.904V278.274z M207.599,247.183h0.324v10.364h-0.324V247.183z M197.559,247.183h8.745     v10.472h-8.745V247.183z M206.627,265.32c0.108-0.324,0.108-0.864,0.108-1.295h1.403v2.375h-11.983v-2.375h1.188v1.188     L206.627,265.32z M195.939,247.183h0.432v10.472h-0.432V247.183z M183.309,273.956h36.597v2.051h-36.597V273.956L183.309,273.956     z M177.479,278.274v1.295h-10.795l-1.08-1.295H177.479z M253.804,282.485H149.303v-4.318h13.386l3.131,3.239h71.466l3.239-3.239     h13.387v4.318H253.804z"/>
		</g>
	</g>
</g>
</svg>
